<svg width="338" height="215" viewBox="0 0 338 215" fill="none" xmlns="http://www.w3.org/2000/svg">
<path d="M0 0H338V215H0V0Z" fill="url(#paint0_linear_19_30)"/>
<path d="M182.578 89.2812V98.1875H153.516V89.2812H182.578ZM161.297 76.8125H173.719V125.375C173.719 126.875 173.922 128.031 174.328 128.844C174.734 129.656 175.344 130.203 176.156 130.484C176.969 130.766 177.938 130.906 179.062 130.906C179.875 130.906 180.625 130.859 181.312 130.766C182 130.672 182.578 130.578 183.047 130.484L183.094 139.766C182.062 140.109 180.891 140.391 179.578 140.609C178.297 140.828 176.844 140.938 175.219 140.938C172.438 140.938 170 140.469 167.906 139.531C165.812 138.562 164.188 137.016 163.031 134.891C161.875 132.734 161.297 129.891 161.297 126.359V76.8125Z" fill="url(#paint1_linear_19_30)"/>
<defs>
<linearGradient id="paint0_linear_19_30" x1="169" y1="0" x2="169" y2="215" gradientUnits="userSpaceOnUse">
<stop stop-color="#32B5EB"/>
<stop offset="0.541667" stop-color="#78DCF4" stop-opacity="0.5"/>
<stop offset="1" stop-color="#78DCF4"/>
</linearGradient>
<linearGradient id="paint1_linear_19_30" x1="120.5" y1="70.5" x2="215" y2="148" gradientUnits="userSpaceOnUse">
<stop offset="0.219384" stop-color="#F5D593"/>
<stop offset="0.510417" stop-color="#FDB825"/>
<stop offset="0.682292" stop-color="#F5D593"/>
<stop offset="1" stop-color="#F5D593" stop-opacity="0.5"/>
</linearGradient>
</defs>
</svg>
