<svg width="628" height="559" viewBox="0 0 628 559" fill="none" xmlns="http://www.w3.org/2000/svg">
<path d="M177.042 29.8133C201.535 26.5007 214.277 8.55753 217.587 0H628V559C486.507 536.64 565.114 380.948 426.931 418.215C288.747 455.481 259.787 392.542 272.199 313.04C284.61 233.538 139.807 222.772 73.6118 210.35C7.41615 197.927 -22.3719 90.2681 19.0004 40.5793C60.3726 -9.10963 146.427 33.9541 177.042 29.8133Z" fill="url(#paint0_linear_48_82)"/>
<g clip-path="url(#clip0_48_82)">
<path opacity="0.22" d="M252.4 445.4C252.4 449.2 236.4 452.2 216.7 452.2C197 452.2 181 449.2 181 445.4C181 441.6 197 438.6 216.7 438.6C236.4 438.6 252.4 441.7 252.4 445.4Z" fill="#AEA2E9"/>
<path opacity="0.22" d="M461.5 445.4C461.5 449.2 445.5 452.2 425.8 452.2C406.1 452.2 390.1 449.2 390.1 445.4C390.1 441.6 406.1 438.6 425.8 438.6C445.5 438.6 461.5 441.7 461.5 445.4Z" fill="#AEA2E9"/>
<path opacity="0.22" d="M398.6 423.7C398.6 427.5 352.2 430.5 295 430.5C237.8 430.5 191.4 427.5 191.4 423.7C191.4 419.9 237.8 416.9 295 416.9C352.2 416.9 398.6 420 398.6 423.7Z" fill="#AEA2E9"/>
<path d="M387.3 423.7H223C214.8 423.7 208.2 417.1 208.2 408.9V200C208.2 191.8 214.8 185.2 223 185.2H387.3C395.5 185.2 402.1 191.8 402.1 200V408.9C402.1 417.1 395.5 423.7 387.3 423.7Z" fill="#FFB507"/>
<path d="M380.7 205.6H228.9V406H380.7V205.6Z" fill="white"/>
<path opacity="0.4" d="M322.1 229.4H239.9V259.4H322.1V229.4Z" fill="#8E8AFF"/>
<path d="M246.8 235.1H311" stroke="#1C00A0" stroke-miterlimit="10"/>
<path d="M246.8 250H294.4" stroke="#1C00A0" stroke-miterlimit="10"/>
<path d="M246.8 242.6H281" stroke="#1C00A0" stroke-miterlimit="10"/>
<path opacity="0.4" d="M322.1 270.2H239.9V300.2H322.1V270.2Z" fill="#8E8AFF"/>
<path d="M246.8 275.9H311" stroke="#1C00A0" stroke-miterlimit="10"/>
<path d="M246.8 290.8H294.4" stroke="#1C00A0" stroke-miterlimit="10"/>
<path d="M246.8 283.4H281" stroke="#1C00A0" stroke-miterlimit="10"/>
<path opacity="0.4" d="M322.1 311H239.9V341H322.1V311Z" fill="#8E8AFF"/>
<path opacity="0.4" d="M322.1 347.5H239.9V377.5H322.1V347.5Z" stroke="#8E8AFF" stroke-miterlimit="10"/>
<path d="M246.8 316.7H311" stroke="#1C00A0" stroke-miterlimit="10"/>
<path d="M246.8 331.6H294.4" stroke="#1C00A0" stroke-miterlimit="10"/>
<path d="M246.8 324.1H281" stroke="#1C00A0" stroke-miterlimit="10"/>
<path d="M347.9 255C353.368 255 357.8 250.568 357.8 245.1C357.8 239.632 353.368 235.2 347.9 235.2C342.432 235.2 338 239.632 338 245.1C338 250.568 342.432 255 347.9 255Z" stroke="#8E8AFF" stroke-miterlimit="10"/>
<path d="M347.9 293.7C353.368 293.7 357.8 289.268 357.8 283.8C357.8 278.332 353.368 273.9 347.9 273.9C342.432 273.9 338 278.332 338 283.8C338 289.268 342.432 293.7 347.9 293.7Z" stroke="#8E8AFF" stroke-miterlimit="10"/>
<path d="M337 241.9L346.7 252.4L367.2 229.4" stroke="#FFB507" stroke-width="2" stroke-miterlimit="10" stroke-linecap="round"/>
<path d="M337 281.1L346.7 291.6L356 279.8" stroke="#FFB507" stroke-width="2" stroke-miterlimit="10" stroke-linecap="round"/>
<path d="M347.9 334.4C353.368 334.4 357.8 329.968 357.8 324.5C357.8 319.032 353.368 314.6 347.9 314.6C342.432 314.6 338 319.032 338 324.5C338 329.968 342.432 334.4 347.9 334.4Z" stroke="#8E8AFF" stroke-miterlimit="10"/>
<path d="M351.681 375.357C356.737 373.277 359.15 367.492 357.071 362.435C354.991 357.379 349.205 354.966 344.149 357.046C339.093 359.126 336.68 364.911 338.759 369.967C340.839 375.024 346.624 377.437 351.681 375.357Z" stroke="#8E8AFF" stroke-miterlimit="10"/>
<path d="M337 363.5L346.7 374L367.2 351.1" stroke="#FF9426" stroke-width="2" stroke-miterlimit="10" stroke-linecap="round" stroke-linejoin="round"/>
<path d="M412 407.5C412 407.1 411.9 406.7 411.9 406.3C411.8 405.7 411.8 405 411.8 404.2C411.8 401 411.4 387.4 411.2 379.3C410.7 372.2 411.1 365.9 411.1 365.9L432.1 364.5C432.9 367.6 433.3 370.1 433.4 372.2C434 375.4 437.1 398.3 438 402.5C438 402.7 438.1 402.9 438.1 403.1C442.7 409.9 446.1 436 446.9 440.5C447 441.1 446.7 441.1 446.3 441C445.2 440.9 445.6 439.9 444.1 440.1C443.3 440.2 443.2 441.3 443.2 441.3C441.2 435.3 434.3 414 431.2 407.7C430.7 406.7 430.5 405.9 430.4 405.1C427.9 398.1 423.9 386 422.8 380.8C422.2 386.8 421.8 400.2 420.6 406.5C423.4 415 419.5 433 419.9 443.2C418.7 441.5 417.6 441.1 417.2 441.2C416.4 441.3 416 442 416 442C415.2 428.2 412.7 414.6 412 407.5Z" fill="#1C00A0"/>
<path d="M422.6 323.5C420.3 322.9 417.3 323.6 416.1 324.5C410.4 328.6 405.9 332 403.7 333.4C400.5 330.4 394.1 325.2 393.2 324.1C392.5 323.2 391.1 324.5 391.1 325.4C391.1 326.6 392.5 326.7 394.7 329.8C397.8 334.3 398.9 335.3 402 338C402.4 338.4 402.9 338.5 403.4 338.6C403.6 338.6 403.7 338.6 403.9 338.6C404.2 338.6 404.5 338.5 404.8 338.4C406.6 337.8 409.9 336.4 415.9 332.7C420.2 330 421.7 328.7 422.9 327.8C424.9 326 424 323.9 422.6 323.5Z" fill="#EBAF84"/>
<path d="M425.1 315.6C425.1 315.8 425.8 320.7 426.2 324.4C426.4 326.2 425.2 328.1 423.8 328.2C423.8 328.2 423.8 328.2 423.7 328.2C422.4 328.3 420.8 326.8 420.8 325C420.8 321.7 420.4 318.4 420.4 318.4L425.1 315.6Z" fill="#EBAF84"/>
<path d="M430.3 336.3C429.4 339.7 429 343.2 428.7 346.7C428.5 349.3 428.7 351.9 429.3 354.4C429.6 355.9 430 357.4 430.5 358.9C430.6 359.3 432 362.1 432.9 364.1C433.3 365 432.7 366 431.7 366C427 366.1 415.1 366.4 411.3 366.6C410.6 366.6 410.1 366.1 410.2 365.4C410.8 360.2 414.6 347.9 411.2 340.4C408.6 334.7 411.5 334.4 413.2 329.4C413.6 328.2 413.9 326.9 414.6 325.8C415.3 324.8 416.5 324 417.7 323.6C418.3 323.4 419 323.3 419.6 323.2C423.1 322.7 431.5 321.1 432.6 326.1C432.9 327.5 432.8 328.9 432.5 330.2C432.1 331.7 431.5 333.1 431 334.6C430.6 335.1 430.5 335.7 430.3 336.3Z" fill="url(#paint1_linear_48_82)"/>
<path d="M427.4 311.9C427.3 316.1 427.2 317 425.5 318.8C423.8 320.6 421.3 321.6 419.3 321.7C417.2 321.8 415.4 319.7 414.8 318C414.2 316.2 413.3 312 413.6 307.4C413.7 305.1 416.4 302.1 419.3 301.9C422.3 301.7 427.7 301.7 427.4 311.9Z" fill="#EBAF84"/>
<path d="M415.7 441.9C415.5 442.4 408 445.7 409.9 446.2C411.8 446.7 414 446.2 415.1 445.9C416.2 445.6 417.3 445.5 418.6 445.5C420.3 445.4 420.3 445.3 420 443.3C419.4 440.7 416.4 440.3 415.7 441.9Z" fill="#321144"/>
<path d="M443.2 440.8C443 441.3 436.5 445.8 438.4 446.3C440.3 446.8 442.5 446.3 443.6 446C444.7 445.7 447.8 444.2 447.5 442.3C446.9 439.6 443.9 439.3 443.2 440.8Z" fill="#321144"/>
<path d="M426.1 312C425.6 313.5 425.8 314.9 426.6 315.1C427.4 315.4 428.4 314.4 428.9 312.9C429.4 311.4 429.2 310 428.4 309.8C427.7 309.6 426.6 310.6 426.1 312Z" fill="#EBAF84"/>
<path d="M444 440.1C443.9 440.2 443.8 440.2 443.7 440.3C443.7 440.2 443.8 440.1 444 440.1Z" fill="#FFC385"/>
<path d="M446.562 370.887L456.549 359.83L369.946 281.606L359.959 292.663L446.562 370.887Z" fill="url(#paint2_linear_48_82)"/>
<path d="M452.306 364.506L453.446 363.244L366.546 284.752L365.406 286.014L452.306 364.506Z" fill="white"/>
<path d="M449.524 367.536L450.664 366.274L363.764 287.782L362.624 289.043L449.524 367.536Z" fill="white"/>
<path d="M448.416 372.623L458.671 361.269L456.445 359.258L446.19 370.612L448.416 372.623Z" fill="white"/>
<path d="M454.9 373.2L459.9 367.7C461.3 366.1 461.2 363.6 459.6 362.2L458.6 361.3L448.4 372.6L449.4 373.5C451 375 453.4 374.8 454.9 373.2Z" fill="#FF572B"/>
<path d="M359.9 292.7L369.9 281.6L359.8 279.7L355.3 278.8L356.7 283.1L359.9 292.7Z" fill="#EBAF84"/>
<path d="M356.7 283.1L359.8 279.7L355.3 278.8L356.7 283.1Z" fill="#FF572B"/>
<path d="M445.7 340C445 338.6 443.1 335.6 437.3 329.7C433.8 326.1 432.1 324.8 431 323.9C428.9 322.2 427.1 323.5 427 325C426.9 327.4 428.3 330.2 429.3 331.1C434 335.3 437.9 338.7 440 340.6C436.3 343.5 430.4 349 429.2 349.7C429.1 349.7 429.1 349.8 429.1 349.8C427.9 349.9 426.7 350.1 426 350.6C425.3 351 426.7 351.1 427.7 351.1C425.9 352.1 424.7 352.5 424.2 353.5C423.6 354.6 426 354.8 426.8 354.4C427.6 354 430.7 353 431.1 351.9C431.9 351.5 432.7 350.4 435.4 349C440.5 346.5 441.7 345.5 444.9 342.8C445.5 342.3 445.8 341.6 445.8 341C445.9 340.7 445.9 340.3 445.7 340Z" fill="#EBAF84"/>
<path d="M393.5 325.7C394 325.1 394.6 324.2 395 323.2C395.2 322.6 395 321.9 394.3 322C393.7 322.1 392 323.1 391.7 323.9C391.4 324.6 391.5 325.6 391.8 326.2C392.1 326.9 392.8 326.6 393.5 325.7Z" fill="#EBAF84"/>
<path d="M427 322.9L426.7 321.7L419.3 322.5L419.4 323.1L427 322.9Z" fill="#FFB507"/>
<path d="M427.5 303.2C425.8 301.3 420.5 299.4 416.8 302.1C415.6 302.6 414.1 304.1 413.7 305C412.9 306.8 413.3 310.6 413.7 309.4C413.9 308.7 414.6 308.1 415.4 307.5C416.9 308.7 419.5 309.9 421.9 310.7L423.3 319.8H429.9C431.4 305.3 427.5 303.2 427.5 303.2Z" fill="#321144"/>
<path opacity="0.4" d="M256.841 353.5L182.622 388.83L195.516 415.917L269.735 380.587L256.841 353.5Z" fill="#8E8AFF"/>
<path d="M191.3 391.1L249.3 363.5" stroke="#1C00A0" stroke-miterlimit="10"/>
<path d="M197.7 404.5L240.7 384.1" stroke="#1C00A0" stroke-miterlimit="10"/>
<path d="M194.5 397.8L225.4 383.1" stroke="#1C00A0" stroke-miterlimit="10"/>
<path d="M198.2 385.8L187.1 393.2L192.6 410.4C192.6 410.4 196.6 412.2 197.4 413.6C198.1 415 199.4 416.8 198.7 416.7C198 416.6 195.8 414.8 195.4 414.8C195 414.8 196.1 419.7 196.1 419.7C196.1 419.7 192.4 419.2 191 417.1C189.6 415 188.8 411.2 188.8 411.2C188.8 411.2 183.2 400.8 181.1 392.5C180.8 391.2 181.2 389.8 182.3 389C185.8 386.1 193.9 379.4 197 378.2C201 376.5 203.5 382.8 198.2 385.8Z" fill="#EBAF84"/>
<path d="M208.7 407.1L210.1 409.3C210.1 409.3 240.3 407.7 244.4 413C248.5 418.3 239.1 427.6 228.1 434.7C217.1 441.8 220.9 439.6 220.9 439.6C220.9 439.6 231.4 441.1 231.3 442.7C231.2 444.3 211.2 442.7 211.2 442.7L229.1 422.3L204 423.4L198.6 408.4L208.7 407.1Z" fill="#18008A"/>
<path d="M207.8 406.1L208.7 412C208.7 412 222.7 420.9 228.2 428.6C233.7 436.3 238.3 444.7 236.1 447.9C232.4 453.5 196.9 438.5 196.9 438.5L198 444.4C198 444.4 201.3 446.7 200.7 447.6C200.1 448.5 191.7 446.3 191.7 446.3C191.7 446.3 188.5 433 189.6 430.2C190.7 427.4 197.6 433.7 197.6 433.7L215.4 435.9C215.4 435.9 201.9 429.5 194.6 423.9C189.2 419.7 187.9 412.5 191.3 406.2H207.8V406.1Z" fill="#1C00A0"/>
<path d="M197.6 433.6L210.7 435.2C210.2 436.3 209.3 439.1 210.6 443.7C203.1 441.1 196.9 438.4 196.9 438.4L198 444.3C198 444.3 201.3 446.6 200.7 447.5C200.1 448.4 191.7 446.2 191.7 446.2C191.7 446.2 188.5 432.9 189.6 430.1C190.7 427.3 197.6 433.6 197.6 433.6Z" fill="#EBAF84"/>
<path d="M195.8 432.1L197.6 433.6L197.2 440.2L198 444.3C198 444.3 201.3 446.6 200.7 447.5C200.3 448.1 197.5 447.8 194.3 446.9C192.7 446.4 191.4 445.1 191 443.4C190.1 439.4 188.7 432 189.5 429.9C190.3 428.2 193.6 430.4 195.8 432.1Z" fill="#FFC385"/>
<path d="M223.4 360.6C223.4 360.6 229.8 369 217.7 371.5C205.7 374 207.7 367.2 208.5 365.6C209.3 363.9 219.2 359 223.4 360.6Z" fill="#FFB507"/>
<path d="M222.2 363.8C222.2 363.8 221 369 222.2 370.9H220.4C220.4 370.9 219.4 372.9 218.6 374.3C217.9 375.7 215.5 373.7 214.6 374.3C213.7 374.9 212 379.9 212 379.9L203 377.2L210.5 361.6L222.2 363.8Z" fill="#EBAF84"/>
<path d="M214.4 376.3C214.4 376.3 211.2 376.8 206.7 374.1L205.1 375.7L199.3 376.3C199.3 376.3 194.1 382.8 193.2 390.7C192.3 398.6 188.5 409.3 190 409.6C191.5 409.9 206.2 410.3 208.8 409.6C210.2 409.2 208.1 399.4 210.2 397.4C212.3 395.4 215.2 393.9 216.2 390.7C217.6 386.1 213.8 378.9 213.8 378.9L214.4 376.3Z" fill="url(#paint3_linear_48_82)"/>
<path d="M229.8 397C229.8 397 221.4 388.5 219.2 385.5C217 382.6 213.1 379.8 210.7 382.9C208.6 385.5 212.3 389.5 213.1 390.7C213.7 391.6 222.6 399.6 226.7 403.3C227.9 404.4 229.8 404.6 231.2 403.8L247.4 394.8C247.4 394.8 248.9 395.6 250.9 395.3C252.9 395.1 252.6 395.1 253.5 394.3C254.4 393.5 257.2 391.6 257.2 390.4C257.2 390.4 251 391.3 250 390.5C249.1 389.6 251 387 250.1 386.2L246.7 390.5L229.8 397Z" fill="#EBAF84"/>
<path d="M224.7 360.5C224.3 355.8 216.5 354.4 212 356.2C207.4 358 206.9 362 202.9 363.8C198.9 365.6 198.8 369.2 196.7 371.3C194.6 373.4 191.2 377.1 193.4 381.3C195.7 385.5 201.5 380 204.8 379.1C208.1 378.2 207.1 376 209 373.2C211 370.4 216.3 370.8 217.2 365.9C217.2 365.9 225.2 366.9 224.7 360.5Z" fill="#321144"/>
<path d="M277.7 234.4C277.7 234.4 286.8 237.2 287.6 239.3L272.7 238L275 234.2L277.7 234.4Z" fill="#25232A"/>
<path d="M284.2 234.4C284.2 234.4 293.3 237.2 294.1 239.3L279.2 238L281.5 234.2L284.2 234.4Z" fill="#25232A"/>
<path d="M270.6 171.8L271.6 178.6C271.6 178.6 295.5 190.7 296.3 197.7C297 204.3 285.9 234.9 285.9 234.9H282.2L282.9 199.7C282.9 199.7 273.8 197.3 259.7 189.1C253.8 185.6 252.9 178 256.4 171.8H270.6Z" fill="#18008A"/>
<path d="M263.6 171.8L264.6 178.6C264.6 178.6 288.5 190.7 289.3 197.7C290 204.3 278.9 234.9 278.9 234.9H275.2L275.9 199.7C275.9 199.7 266.8 197.3 252.7 189.1C246.8 185.6 245.9 178 249.4 171.8H263.6Z" fill="#1C00A0"/>
<path d="M284 123C284.9 123.5 285.3 120 285.4 118.8C285.5 117.6 284.7 116.6 283.8 116.1C282.9 115.7 281.7 114.9 280.7 114.9C278.3 114.9 278.3 114.9 275.9 114.9C274.9 114.9 273.8 114.9 272.9 115.4C271.2 116.3 270.1 118.5 269.9 120.7C269.7 122.8 270.2 124.9 270.6 127C270.9 128.4 271.4 129.9 272.5 130.3C273.6 130.7 274.9 129.9 275.8 128.9C277.2 127.2 278.7 128.1 279.9 126.2C281.1 124.3 280.8 122.7 282.7 123" fill="#321144"/>
<path d="M281.2 158.2L280.9 166.2L292.7 174.6L295.2 175.2C295.9 175.4 296.5 175.9 296.8 176.6L296.9 176.8L294.2 176.9L296.4 180.2C296.8 180.8 296.6 181.7 295.9 182.1L294.5 182.8C294 183.1 293.4 182.9 293 182.5L287.5 176.4L275.1 169.4C274.3 169 273.8 168.1 273.9 167.2L274.6 156.7L281.2 158.2Z" fill="#EBAF84"/>
<path d="M281.1 143.7L283.4 159.8L273.2 161.7L274.4 148.7L281.1 143.7Z" fill="url(#paint4_linear_48_82)"/>
<path d="M273.9 135.3C270.2 134.3 262.9 135.5 259.3 140.7C255.7 145.9 247.3 166.1 247.3 176C247.3 176 260.1 178.3 271.6 175.2C271.6 175.2 273.9 163.1 276.1 158.1C278.3 153.1 278.1 153.3 281.2 143.7C281.1 143.7 279.9 136.9 273.9 135.3Z" fill="url(#paint5_linear_48_82)"/>
<path d="M282.9 122.1L283.4 127.5L281.8 127.4C281.8 127.4 281.8 130 281.7 131.2C281.6 132.3 280.8 133.4 278.1 132.8L276.8 140C276.8 140 273 141.2 270.2 135.2L272.3 128.3C272.3 128.3 270.4 127.8 270.4 125.9C270.4 123.9 272.9 125.1 272.9 125.1L273.2 128.9L275 129.4L275.3 123C275.3 123 279.5 124.2 280.8 123.2C281.5 122.7 282 122 282 122L282.9 122.1Z" fill="#EBAF84"/>
<path d="M258.8 182.7L275.1 189.1L301.8 189.6L314.8 169.2L287.3 167.5L275.5 187.3L258.9 181.3L258.8 182.7Z" fill="#AEA2E9"/>
<path d="M298.2 179C297.8 179.9 297 180.5 296.2 180.2C295.5 180 295.2 179 295.5 178.1C295.8 177.2 296.7 176.6 297.5 176.9C298.3 177.1 298.6 178.1 298.2 179Z" fill="#F3F0D8"/>
<path d="M261.8 155.8L260.7 166.1L274 178.2C274 178.2 281.3 179.6 281.3 180.3C281.4 181 277.8 181.1 277.8 181.1L280.7 185.8L280.8 185.9C281.9 187 281.4 188.8 280 189.2L279.1 189.5C278.5 189.7 277.8 189.5 277.2 189.1L275.1 187.3C274.9 187.1 274.7 186.9 274.6 186.7L271.1 181.6L254.8 170.4C254.1 169.9 253.7 169.1 253.6 168.3L253.1 155.1L261.8 155.8Z" fill="#EBAF84"/>
<path d="M262.5 138C266.1 139.1 266.6 143.1 266.2 146.8C265.8 150.5 266.3 156.8 266.3 156.8L252.4 154.4C252.4 154.4 254.5 143.5 255.7 141.4C257.5 138.2 260 137.2 262.5 138Z" fill="url(#paint6_linear_48_82)"/>
<path d="M204 397.924C204 397.924 207.543 396.54 210.536 396.52" stroke="#F96786" stroke-width="0.5" stroke-miterlimit="10" stroke-linecap="round" stroke-linejoin="round"/>
</g>
<path opacity="0.22" d="M198 306C198 311.588 178.28 316 154 316C129.72 316 110 311.588 110 306C110 300.412 129.72 296 154 296C178.28 296 198 300.559 198 306Z" fill="#AEA2E9"/>
<path d="M501.407 382.115H511.007V387.758H501.407V382.115Z" fill="#FF897F"/>
<path d="M511.007 387.025C511.007 387.025 511.154 393.108 511.007 394.134C511.007 394.134 506.244 394.427 503.825 394.427C501.407 394.427 494.591 394.72 492.392 394.134C490.267 393.621 491.073 392.742 491.586 391.862C492.099 390.983 501.553 387.025 501.553 387.025C501.553 387.025 507.05 387.905 511.007 387.025Z" fill="#282E4E"/>
<path d="M515.771 306.044C515.771 306.044 516.064 314.326 515.771 325.978C515.478 337.557 512.546 383.947 512.546 383.947L500.088 384.534L495.47 306.044H515.771Z" fill="url(#paint7_linear_48_82)"/>
<path d="M502.579 241.406L501.773 243.898C501.773 243.898 499.794 243.898 499.574 244.557C499.355 245.217 500.601 246.243 500.601 246.243C500.601 246.243 499.281 251.519 500.747 253.938C502.213 256.356 511.154 255.037 511.154 255.037C511.154 255.037 514.818 254.671 516.87 250.567C518.922 246.463 520.388 243.385 519.582 239.281C519.142 236.862 514.818 235.25 510.714 235.396C507.05 235.396 503.752 237.888 502.579 241.406Z" fill="#FF897F"/>
<path d="M505.95 254.524L505.364 259.947L514.378 258.628L515.111 252.985L505.95 254.524Z" fill="#FF897F"/>
<path d="M505.804 237.009C505.804 237.009 507.196 239.281 510.274 240.526C510.274 240.526 509.175 244.85 510.054 245.29C510.934 245.73 510.861 244.63 512.546 244.484C514.232 244.337 514.378 246.463 513.865 248.441C513.352 250.347 511.3 250.86 510.567 250.713C509.835 250.567 509.615 251.446 511.08 252.765C512.546 254.084 514.891 255.403 514.891 255.403C514.891 255.403 521.487 249.321 522.66 246.243C523.832 243.165 522.66 241.406 522.66 241.406C522.66 241.406 523.466 237.375 520.168 235.323C516.87 233.271 510.201 232.831 507.489 233.051C504.778 233.344 504.998 234.81 504.998 234.81C504.998 234.81 503.825 234.883 503.312 236.349C502.799 237.815 503.898 238.987 503.898 238.987C503.898 238.987 504.998 237.522 505.804 237.009Z" fill="#282E4E"/>
<path d="M514.525 257.749C514.525 257.749 518.189 263.025 519.875 268.522C521.56 274.018 515.771 306.044 515.771 306.044H495.544C495.544 306.044 496.13 274.971 497.669 269.548C499.574 262.659 505.437 259.288 505.437 259.288L514.525 257.749Z" fill="url(#paint8_linear_48_82)"/>
<path d="M508.442 306.557L508.882 381.676" stroke="#F96786" stroke-miterlimit="10" stroke-linecap="round" stroke-linejoin="round"/>
<path d="M512.693 381.676H499.721" stroke="#F96786" stroke-miterlimit="10" stroke-linecap="round" stroke-linejoin="round"/>
<path d="M518.629 267.203C521.487 272.406 526.837 283.032 529.842 294.245L521.34 297.69L507.783 272.919C506.83 271.233 506.757 269.181 507.563 267.422C507.563 267.349 507.636 267.349 507.636 267.276C509.835 262.879 516.21 262.879 518.629 267.203Z" fill="url(#paint9_linear_48_82)"/>
<path d="M504.998 311.028C504.998 311.028 502.872 311.467 502.872 311.028C502.872 310.588 503.972 310.075 505.144 310.075C505.437 310.075 505.804 310.075 506.097 310.075V309.855L505.218 309.709C505.218 309.709 503.239 310.441 503.166 310.075C503.019 309.709 504.485 308.609 505.364 308.683C505.877 308.683 506.537 308.829 507.05 308.976L508.002 309.049C507.27 308.609 506.61 308.316 506.757 308.023C506.976 307.657 507.343 307.73 508.589 308.243C509.395 308.536 510.128 309.049 510.494 309.269H510.861L521.487 297.763L529.988 294.318C529.988 294.318 532.407 299.815 528.669 304.285C524.931 308.756 512.106 314.692 512.106 314.692C510.714 315.278 506.61 313.666 506.61 313.666L505.804 313.519C505.804 313.519 503.679 313.959 503.679 313.519C503.679 313.08 504.778 312.567 505.95 312.567C506.17 312.567 506.317 312.567 506.537 312.567V312.493L505.364 312.274C505.364 312.274 503.239 312.713 503.239 312.274C503.239 311.834 504.338 311.321 505.511 311.321C505.804 311.321 506.17 311.321 506.463 311.321V311.248L504.998 311.028Z" fill="#FF897F"/>
<path d="M509.688 253.864C509.688 253.864 507.636 255.403 505.804 255.33" stroke="#BA6561" stroke-miterlimit="10" stroke-linecap="round" stroke-linejoin="round"/>
<path d="M510.787 309.269C510.787 309.269 509.688 311.687 509.835 312.713" stroke="#BA6561" stroke-miterlimit="10" stroke-linecap="round" stroke-linejoin="round"/>
<path d="M130.989 273.735L131.608 294.647L128.421 305.214C128.421 305.214 127.803 305.956 132.912 307.165C138.021 308.374 140.956 306.589 140.956 306.589L140.043 294.983L142.386 276.513L130.989 273.735Z" fill="#FF897F"/>
<path d="M161.224 276.994L164.31 296.17L164.968 305.202L184.331 307.222L173.917 296.954L171.891 276.191L161.224 276.994Z" fill="#FF897F"/>
<path d="M130.427 298.864C130.427 298.864 131.101 302 134.398 302.621C139.436 303.56 140.389 299.853 140.389 299.853C140.389 299.853 141.595 306.729 141.559 308.31C141.523 309.892 137.664 311.602 134.062 311.308C129.997 310.976 128.129 308.799 127.312 307.412C126.502 305.938 130.427 298.864 130.427 298.864Z" fill="#464F96"/>
<path d="M164.472 298.736C164.472 298.736 163.782 302.641 164.016 304.333C164.25 306.024 164.534 307.104 164.989 307.229C165.351 307.346 172.158 308.254 173.821 308.389C175.477 308.612 183.03 309.493 185.368 309.331C187.706 309.17 188.083 309.112 188.531 308.181C188.979 307.249 178.741 301.661 178.741 301.661C178.741 301.661 176.168 302.419 172.281 302.19C168.387 302.048 166.142 298.785 164.472 298.736Z" fill="#464F96"/>
<path d="M154.472 139.743L153.88 147L144.501 145.707L143.864 135.269L154.472 139.743Z" fill="#FF897F"/>
<path d="M204.488 152.449C203.316 152.001 201.738 151.96 200.616 152.045L200.651 151.608C202.336 151.481 205.611 151.22 203.984 150.647C202.087 149.964 198.975 150.503 198.975 150.503L196.168 149.57C197.092 148.501 197.924 146.28 197.256 146.489C196.588 146.699 193.922 149.738 193.119 150.465L179.408 162.374L162.557 145.508C160.46 147.273 159.136 156.672 161.629 161.452C164.228 166.065 178.943 172.635 178.943 172.635C184.962 172.95 193.528 160.269 196.081 156.34L199.136 156.501C199.136 156.501 199.968 156.569 200.621 156.535C202.391 156.503 204.722 156.429 203.286 155.784C202.476 155.454 201.56 155.291 200.636 155.215L200.665 154.866C202.349 154.739 205.795 154.668 204.175 154.008C203.188 153.575 201.795 153.549 200.679 153.546L200.701 153.284C202.1 153.222 206.286 153.212 204.488 152.449Z" fill="#FF897F"/>
<path d="M159.133 119.085C159.133 119.085 161.56 130.374 161.445 135.206C161.322 140.126 157.769 142.652 153.519 142.306C149.27 141.959 145.682 139.202 145.682 139.202L141.088 129.409C139.341 125.745 140.898 121.471 144.587 119.571C146.136 118.817 147.778 118.071 149.583 117.602C155.481 115.971 159.133 119.085 159.133 119.085Z" fill="#FF897F"/>
<path d="M142.715 129.981C142.715 129.981 139.837 128.778 138.678 130.444C137.519 132.11 139.693 135.104 141.647 136.232C143.601 137.36 146.728 136.646 146.728 136.646L142.715 129.981Z" fill="#FF897F"/>
<path d="M169.769 195.037C169.769 195.037 164.936 197.283 155.009 197.002C150.831 196.925 146.411 196.388 142.546 195.897C137.209 195.198 133.273 194.437 133.273 194.437L136.213 176.632L131.034 146.633C134.567 144.369 144.345 143.054 144.345 143.054C144.345 143.054 148.43 146.556 152.708 146.553C154.2 146.498 154.166 143.503 154.166 143.503C154.166 143.503 159.644 143.598 161.968 144.755C162.33 144.873 162.593 145.07 162.849 145.355C168.475 151.624 164.729 178.165 164.729 178.165L169.769 195.037Z" fill="url(#paint10_linear_48_82)"/>
<path d="M157.783 118.535C157.783 118.535 157.114 121.033 154.122 123.518C151.037 125.995 148.436 125.959 148.436 125.959C148.436 125.959 147.576 127.385 146.41 127.994C145.245 128.603 145.245 128.603 145.245 128.603C145.245 128.603 145.976 131.04 145.371 132.751C145.371 132.751 143.319 129.415 141.173 129.504C139.027 129.593 137.917 131.791 139.246 133.748C140.482 135.697 143.288 136.63 143.935 136.683L144.274 141.64C144.274 141.64 142.761 141.956 140.601 141.076L140.508 141.068C139.528 140.548 138.213 141.849 135.989 141.756C133.765 141.663 133.502 140.321 131.612 140.695C129.721 141.069 126.161 141.395 125.245 137.799C124.33 134.203 127.372 133.395 126.527 131.214C125.774 129.04 127.103 127.564 129.122 126.76C131.14 125.956 129.628 120.552 132.656 118.774C135.691 116.909 136.444 116.795 137.198 115.536C137.951 114.277 140.73 113.271 143.125 113.555C146.166 113.891 145.655 111.032 149.876 111.729C154.829 112.573 155.681 114.667 155.681 114.667C155.681 114.667 157.997 114.768 160.32 117.07C164.199 120.819 162.997 125.298 160.8 128.288C160.793 128.375 158.969 119.952 157.783 118.535Z" fill="#282E4E"/>
<path d="M131.454 146.051L113.456 161.484L100.662 148.469C99.9874 147.622 97.4586 144.423 96.8333 144.108C96.1157 143.785 96.8541 146.134 97.6922 147.259L94.8425 147.994C94.8425 147.994 91.7444 147.214 89.8398 147.762C88.2195 148.246 91.4384 148.685 93.1793 149.003L93.1437 149.44C92.0423 149.262 90.4719 149.134 89.2282 149.561C87.4088 150.205 91.6582 150.551 93.0367 150.752L93.0153 151.014C91.9991 150.931 90.5211 150.811 89.5617 151.173C87.9342 151.744 91.345 152.11 93.0007 152.333L92.9721 152.683C92.0412 152.695 91.018 152.7 90.2504 152.989C88.8148 153.488 91.1171 153.764 92.8723 153.907C93.4266 153.952 94.3503 154.028 94.3503 154.028L97.413 154.102C99.6715 158.335 107.235 171.627 113.269 171.767C113.269 171.767 131.633 164.375 134.42 159.849C137.292 155.418 133.436 147.974 131.454 146.051Z" fill="#FF897F"/>
<path d="M176.488 277.975L171.812 278.297L160.307 279.12L153.162 218.505L151.664 216.358L146.635 278.004L128.16 276.497C128.16 276.497 126.802 232.727 127.871 219.611C128.941 206.495 133.821 191.136 133.821 191.136C151.584 197.955 169.123 192.696 169.123 192.696C169.272 193.148 169.422 193.6 169.571 194.052C174.624 213.038 176.488 277.975 176.488 277.975Z" fill="url(#paint11_linear_48_82)"/>
<path d="M113.456 161.484C113.456 161.484 115.999 164.508 117.051 166.442" stroke="#BA6561" stroke-miterlimit="10" stroke-linecap="round" stroke-linejoin="round"/>
<path d="M179.507 162.294C179.507 162.294 178.455 164.937 179.094 167.366" stroke="#BA6561" stroke-miterlimit="10" stroke-linecap="round" stroke-linejoin="round"/>
<path d="M154.258 142.366C154.258 142.366 147.628 142.705 144.972 137.648" stroke="#BA6561" stroke-miterlimit="10" stroke-linecap="round" stroke-linejoin="round"/>
<path d="M137.08 176.262L140.405 177.678" stroke="#F96786" stroke-miterlimit="10" stroke-linecap="round" stroke-linejoin="round"/>
<path d="M130.755 202.505C130.755 202.505 136.951 201.778 138.417 195.208" stroke="#7954B3" stroke-miterlimit="10"/>
<path d="M133.067 193.539C133.067 193.539 151.981 201.068 169.769 195.037" stroke="#7954B3" stroke-miterlimit="10"/>
<path d="M151.749 216.453C151.749 216.453 153.463 212.544 157.215 211.001" stroke="#7954B3" stroke-miterlimit="10"/>
<path d="M165.96 196.135C165.96 196.135 167.593 202.341 171.365 203.969" stroke="#7954B3" stroke-miterlimit="10"/>
<path d="M128.019 271.38C128.019 271.38 134.684 272.892 147.141 272.94" stroke="#7954B3" stroke-miterlimit="10"/>
<path d="M176.369 272.596C176.369 272.596 167.614 273.906 159.733 273.615" stroke="#7954B3" stroke-miterlimit="10"/>
<path d="M141.801 143.463C141.801 143.463 145.566 147.467 151.478 147.949C157.39 148.431 155.843 143.464 155.843 143.464" stroke="#F96786" stroke-miterlimit="10" stroke-linecap="round" stroke-linejoin="round"/>
<path d="M144.892 165.985C144.892 165.985 153.711 165.031 161.308 165.387" stroke="#F96786" stroke-miterlimit="10" stroke-linecap="round" stroke-linejoin="round"/>
<path d="M387.755 130.375C387.755 129.437 395.813 95 437.59 95C465.681 95 490.791 113.378 490.791 139.757C490.791 158.135 477.105 169.338 459.169 177.009C452.822 179.824 452.601 185.067 452.601 191.248V201.733H421.696V181.314C421.696 173.091 422.082 166.358 430.471 160.894C441.895 153.61 452.546 153.002 452.546 139.757C452.546 130.762 445.813 124.415 437.369 124.415C423.903 124.415 417.336 135.673 415.294 143.676L387.755 130.375ZM458.561 233.742C458.561 245.553 449.014 255.1 437.038 255.1C425.228 255.1 415.68 245.553 415.68 233.742C415.68 221.767 425.228 212.219 437.038 212.219C449.014 212.219 458.561 221.767 458.561 233.742Z" fill="url(#paint12_linear_48_82)"/>
<path opacity="0.47" d="M387.259 136.501C387.259 135.618 395.592 98.4768 434.665 98.4768C460.935 98.4768 484.389 115.64 484.389 140.309C484.389 157.473 471.586 167.958 454.809 175.133C448.848 177.782 448.683 182.638 448.683 188.433V198.257H419.764V179.162C419.764 171.435 420.096 165.144 427.987 160.066C438.694 153.223 448.628 152.727 448.628 140.254C448.628 131.865 442.336 125.905 434.444 125.905C421.862 125.905 414.908 141.358 412.976 148.863L387.259 136.501ZM459.334 231.369C459.334 242.407 450.394 251.347 439.191 251.347C428.153 251.347 419.213 242.407 419.213 231.369C419.213 220.166 428.153 211.226 439.191 211.226C450.394 211.226 459.334 220.166 459.334 231.369Z" stroke="white" stroke-miterlimit="10"/>
<path d="M352.049 142.903C351.994 142.682 351.111 134.846 359.941 131.755C365.846 129.658 372.524 131.645 374.455 137.219C375.835 141.082 373.793 144.448 370.537 147.428C369.378 148.477 369.764 149.636 370.206 150.905L370.978 153.113L364.466 155.431L362.976 151.126C362.369 149.415 361.928 147.925 363.307 146.159C365.184 143.786 367.391 142.848 366.398 140.033C365.735 138.157 363.859 137.274 362.038 137.936C359.223 138.93 358.671 141.799 358.837 143.621L352.049 142.903ZM374.676 159.404C375.559 161.888 374.234 164.592 371.696 165.475C369.212 166.358 366.508 165.033 365.625 162.55C364.742 160.011 366.011 157.307 368.55 156.424C371.034 155.596 373.793 156.921 374.676 159.404Z" fill="url(#paint13_linear_48_82)"/>
<path d="M502.491 147.097C502.546 146.877 506.906 140.309 515.681 143.565C521.586 145.718 525.394 151.512 523.352 157.086C521.917 160.949 518.22 162.219 513.805 162.44C512.259 162.55 511.818 163.599 511.321 164.923L510.493 167.131L504.036 164.757L505.637 160.453C506.299 158.742 506.851 157.362 509.058 156.866C512.039 156.203 514.301 156.921 515.35 154.161C516.067 152.285 515.129 150.409 513.363 149.746C510.548 148.698 508.286 150.519 507.237 152.064L502.491 147.097ZM509.334 174.25C508.396 176.733 505.692 178.003 503.153 177.064C500.67 176.126 499.401 173.422 500.339 170.939C501.277 168.4 504.036 167.186 506.465 168.069C509.003 169.007 510.217 171.766 509.334 174.25Z" fill="url(#paint14_linear_48_82)"/>
<path d="M394.544 157.142C394.599 157.031 396.917 153.499 401.663 155.21C404.864 156.369 406.906 159.515 405.802 162.495C405.029 164.592 403.042 165.254 400.669 165.365C399.842 165.42 399.566 166.027 399.345 166.689L398.903 167.848L395.427 166.579L396.254 164.261C396.585 163.323 396.917 162.605 398.131 162.329C399.731 161.998 400.945 162.384 401.497 160.839C401.884 159.846 401.387 158.797 400.449 158.466C398.903 157.914 397.689 158.908 397.137 159.735L394.544 157.142ZM398.241 171.822C397.744 173.146 396.254 173.808 394.93 173.312C393.605 172.815 392.888 171.325 393.385 170C393.881 168.621 395.371 167.958 396.696 168.455C398.076 169.007 398.738 170.442 398.241 171.822Z" fill="#B6B6CE"/>
<path d="M495.813 114.095C495.813 113.985 496.31 108.963 502.215 108.19C506.189 107.693 510.052 109.79 510.548 113.543C510.88 116.137 509.169 117.958 506.74 119.393C505.913 119.89 505.968 120.662 506.078 121.545L506.244 123.035L501.884 123.587L501.498 120.718C501.332 119.559 501.277 118.565 502.381 117.682C503.871 116.413 505.361 116.137 505.14 114.261C504.974 112.991 503.926 112.219 502.712 112.384C500.78 112.605 500.063 114.316 499.952 115.53L495.813 114.095ZM507.734 127.45C507.955 129.106 506.796 130.651 505.085 130.872C503.429 131.093 501.884 129.934 501.663 128.223C501.442 126.512 502.601 125.022 504.312 124.801C505.968 124.526 507.513 125.74 507.734 127.45Z" fill="#E5E5EC"/>
<path d="M167.317 88.3986C167.372 88.2882 169.69 84.7562 174.436 86.467C177.637 87.6259 179.679 90.7717 178.575 93.7518C177.803 95.8489 175.816 96.5112 173.443 96.6216C172.615 96.6768 172.339 97.2838 172.118 97.9461L171.677 99.105L168.2 97.8357L169.028 95.5178C169.359 94.5796 169.69 93.8622 170.904 93.5862C172.505 93.2551 173.719 93.6414 174.271 92.0962C174.657 91.1028 174.16 90.0542 173.222 89.7231C171.677 89.1712 170.463 90.1646 169.911 90.9924L167.317 88.3986ZM171.015 103.079C170.518 104.403 169.028 105.065 167.703 104.569C166.379 104.072 165.661 102.582 166.158 101.257C166.655 99.8777 168.145 99.2154 169.469 99.7121C170.849 100.264 171.511 101.699 171.015 103.079Z" fill="#B6B6CE"/>
<path d="M104.049 81.9642C103.994 81.7435 103.111 73.9068 111.941 70.8163C117.846 68.7192 124.524 70.7059 126.455 76.2799C127.835 80.143 125.793 83.5095 122.537 86.4896C121.378 87.5382 121.764 88.6972 122.206 89.9665L122.978 92.174L116.466 94.4919L114.976 90.1872C114.369 88.4764 113.928 86.9863 115.307 85.2203C117.184 82.8472 119.391 81.9091 118.398 79.0945C117.735 77.2181 115.859 76.3351 114.038 76.9973C111.223 77.9907 110.671 80.8605 110.837 82.6817L104.049 81.9642ZM126.676 98.4654C127.559 100.949 126.234 103.653 123.696 104.536C121.212 105.419 118.508 104.095 117.625 101.611C116.742 99.0725 118.011 96.3683 120.55 95.4853C123.034 94.6575 125.793 95.982 126.676 98.4654Z" fill="url(#paint15_linear_48_82)"/>
<defs>
<linearGradient id="paint0_linear_48_82" x1="276" y1="351" x2="614" y2="7.86069e-06" gradientUnits="userSpaceOnUse">
<stop stop-color="#2A9FE6"/>
<stop offset="0.756748" stop-color="#9CEBF3"/>
<stop offset="1" stop-color="#9CEBF3" stop-opacity="0.5"/>
</linearGradient>
<linearGradient id="paint1_linear_48_82" x1="421.594" y1="322.557" x2="421.594" y2="366.6" gradientUnits="userSpaceOnUse">
<stop stop-color="#E45348"/>
<stop offset="1" stop-color="#FFB507"/>
</linearGradient>
<linearGradient id="paint2_linear_48_82" x1="451.556" y1="365.359" x2="364.952" y2="287.135" gradientUnits="userSpaceOnUse">
<stop stop-color="#18008A"/>
<stop offset="1" stop-color="#1C00A0"/>
</linearGradient>
<linearGradient id="paint3_linear_48_82" x1="190" y1="374" x2="206.5" y2="404" gradientUnits="userSpaceOnUse">
<stop offset="0.561853" stop-color="#C64D6A"/>
<stop offset="0.753756" stop-color="#A43361"/>
</linearGradient>
<linearGradient id="paint4_linear_48_82" x1="278.3" y1="143.7" x2="278.3" y2="161.7" gradientUnits="userSpaceOnUse">
<stop stop-color="#E96141"/>
<stop offset="1" stop-color="#FFB507"/>
</linearGradient>
<linearGradient id="paint5_linear_48_82" x1="264.25" y1="134.978" x2="264.25" y2="176.821" gradientUnits="userSpaceOnUse">
<stop stop-color="#E65846"/>
<stop offset="1" stop-color="#FFB507"/>
</linearGradient>
<linearGradient id="paint6_linear_48_82" x1="259.358" y1="137.738" x2="259.358" y2="156.8" gradientUnits="userSpaceOnUse">
<stop stop-color="#EA653E"/>
<stop offset="1" stop-color="#FFB507"/>
</linearGradient>
<linearGradient id="paint7_linear_48_82" x1="478.978" y1="322.344" x2="522.095" y2="356.512" gradientUnits="userSpaceOnUse">
<stop stop-color="#CD536C"/>
<stop offset="1" stop-color="#8B1F5A"/>
</linearGradient>
<linearGradient id="paint8_linear_48_82" x1="497.523" y1="325.809" x2="512.166" y2="265.1" gradientUnits="userSpaceOnUse">
<stop offset="0.15" stop-color="#464F96"/>
<stop offset="0.3962" stop-color="#4A4F98"/>
<stop offset="0.6269" stop-color="#55509F"/>
<stop offset="0.8507" stop-color="#6852A9"/>
<stop offset="1" stop-color="#7954B3"/>
</linearGradient>
<linearGradient id="paint9_linear_48_82" x1="520.991" y1="285.339" x2="510.735" y2="265.003" gradientUnits="userSpaceOnUse">
<stop stop-color="#464F96"/>
<stop offset="0.2789" stop-color="#4A4F98"/>
<stop offset="0.5606" stop-color="#56519F"/>
<stop offset="0.8426" stop-color="#6A53AB"/>
<stop offset="1" stop-color="#7954B3"/>
</linearGradient>
<linearGradient id="paint10_linear_48_82" x1="143.914" y1="145.315" x2="153.892" y2="205.649" gradientUnits="userSpaceOnUse">
<stop stop-color="#CD536C"/>
<stop offset="1" stop-color="#8B1F5A"/>
</linearGradient>
<linearGradient id="paint11_linear_48_82" x1="140.135" y1="190.115" x2="155.253" y2="281.524" gradientUnits="userSpaceOnUse">
<stop stop-color="#464F96"/>
<stop offset="0.2789" stop-color="#4A4F98"/>
<stop offset="0.5606" stop-color="#56519F"/>
<stop offset="0.8426" stop-color="#6A53AB"/>
<stop offset="1" stop-color="#7954B3"/>
</linearGradient>
<linearGradient id="paint12_linear_48_82" x1="397.812" y1="192.905" x2="496.22" y2="142.256" gradientUnits="userSpaceOnUse">
<stop stop-color="#7954B3"/>
<stop offset="0.0487664" stop-color="#7153AE"/>
<stop offset="0.2128" stop-color="#5951A1"/>
<stop offset="0.366" stop-color="#4B4F99"/>
<stop offset="0.4969" stop-color="#464F96"/>
<stop offset="0.6394" stop-color="#4A4F98"/>
<stop offset="0.7788" stop-color="#56519F"/>
<stop offset="0.9165" stop-color="#6952AA"/>
<stop offset="1" stop-color="#7954B3"/>
</linearGradient>
<linearGradient id="paint13_linear_48_82" x1="371.244" y1="170.677" x2="363.279" y2="140.046" gradientUnits="userSpaceOnUse">
<stop stop-color="#DC911B"/>
<stop offset="1" stop-color="#E7B142"/>
</linearGradient>
<linearGradient id="paint14_linear_48_82" x1="500.023" y1="160.012" x2="523.906" y2="160.012" gradientUnits="userSpaceOnUse">
<stop stop-color="#DC911B"/>
<stop offset="1" stop-color="#E7B142"/>
</linearGradient>
<linearGradient id="paint15_linear_48_82" x1="123.244" y1="109.738" x2="115.279" y2="79.1069" gradientUnits="userSpaceOnUse">
<stop stop-color="#DC911B"/>
<stop offset="1" stop-color="#E7B142"/>
</linearGradient>
<clipPath id="clip0_48_82">
<rect width="280.5" height="337.2" fill="white" transform="translate(181 115)"/>
</clipPath>
</defs>
</svg>
