<svg width="455" height="383" viewBox="0 0 455 383" fill="none" xmlns="http://www.w3.org/2000/svg">
<g clip-path="url(#clip0_44_81)">
<path opacity="0.22" d="M176.4 375.4C176.4 379.2 160.4 382.2 140.7 382.2C121 382.2 105 379.2 105 375.4C105 371.6 121 368.6 140.7 368.6C160.4 368.6 176.4 371.7 176.4 375.4Z" fill="#AEA2E9"/>
<path opacity="0.22" d="M385.5 375.4C385.5 379.2 369.5 382.2 349.8 382.2C330.1 382.2 314.1 379.2 314.1 375.4C314.1 371.6 330.1 368.6 349.8 368.6C369.5 368.6 385.5 371.7 385.5 375.4Z" fill="#AEA2E9"/>
<path opacity="0.22" d="M322.6 353.7C322.6 357.5 276.2 360.5 219 360.5C161.8 360.5 115.4 357.5 115.4 353.7C115.4 349.9 161.8 346.9 219 346.9C276.2 346.9 322.6 350 322.6 353.7Z" fill="#AEA2E9"/>
<path d="M311.3 353.7H147C138.8 353.7 132.2 347.1 132.2 338.9V130C132.2 121.8 138.8 115.2 147 115.2H311.3C319.5 115.2 326.1 121.8 326.1 130V338.9C326.1 347.1 319.5 353.7 311.3 353.7Z" fill="#FFB507"/>
<path d="M304.7 135.6H152.9V336H304.7V135.6Z" fill="white"/>
<path opacity="0.4" d="M246.1 159.4H163.9V189.4H246.1V159.4Z" fill="#8E8AFF"/>
<path d="M170.8 165.1H235" stroke="#1C00A0" stroke-miterlimit="10"/>
<path d="M170.8 180H218.4" stroke="#1C00A0" stroke-miterlimit="10"/>
<path d="M170.8 172.6H205" stroke="#1C00A0" stroke-miterlimit="10"/>
<path opacity="0.4" d="M246.1 200.2H163.9V230.2H246.1V200.2Z" fill="#8E8AFF"/>
<path d="M170.8 205.9H235" stroke="#1C00A0" stroke-miterlimit="10"/>
<path d="M170.8 220.8H218.4" stroke="#1C00A0" stroke-miterlimit="10"/>
<path d="M170.8 213.4H205" stroke="#1C00A0" stroke-miterlimit="10"/>
<path opacity="0.4" d="M246.1 241H163.9V271H246.1V241Z" fill="#8E8AFF"/>
<path opacity="0.4" d="M246.1 277.5H163.9V307.5H246.1V277.5Z" stroke="#8E8AFF" stroke-miterlimit="10"/>
<path d="M170.8 246.7H235" stroke="#1C00A0" stroke-miterlimit="10"/>
<path d="M170.8 261.6H218.4" stroke="#1C00A0" stroke-miterlimit="10"/>
<path d="M170.8 254.1H205" stroke="#1C00A0" stroke-miterlimit="10"/>
<path d="M271.9 185C277.368 185 281.8 180.568 281.8 175.1C281.8 169.632 277.368 165.2 271.9 165.2C266.432 165.2 262 169.632 262 175.1C262 180.568 266.432 185 271.9 185Z" stroke="#8E8AFF" stroke-miterlimit="10"/>
<path d="M271.9 223.7C277.368 223.7 281.8 219.268 281.8 213.8C281.8 208.332 277.368 203.9 271.9 203.9C266.432 203.9 262 208.332 262 213.8C262 219.268 266.432 223.7 271.9 223.7Z" stroke="#8E8AFF" stroke-miterlimit="10"/>
<path d="M261 171.9L270.7 182.4L291.2 159.4" stroke="#FFB507" stroke-width="2" stroke-miterlimit="10" stroke-linecap="round"/>
<path d="M261 211.1L270.7 221.6L280 209.8" stroke="#FFB507" stroke-width="2" stroke-miterlimit="10" stroke-linecap="round"/>
<path d="M271.9 264.4C277.368 264.4 281.8 259.968 281.8 254.5C281.8 249.032 277.368 244.6 271.9 244.6C266.432 244.6 262 249.032 262 254.5C262 259.968 266.432 264.4 271.9 264.4Z" stroke="#8E8AFF" stroke-miterlimit="10"/>
<path d="M275.681 305.357C280.737 303.277 283.15 297.492 281.071 292.435C278.991 287.379 273.205 284.966 268.149 287.046C263.093 289.126 260.68 294.911 262.759 299.967C264.839 305.024 270.624 307.437 275.681 305.357Z" stroke="#8E8AFF" stroke-miterlimit="10"/>
<path d="M261 293.5L270.7 304L291.2 281.1" stroke="#FF9426" stroke-width="2" stroke-miterlimit="10" stroke-linecap="round" stroke-linejoin="round"/>
<path d="M336 337.5C336 337.1 335.9 336.7 335.9 336.3C335.8 335.7 335.8 335 335.8 334.2C335.8 331 335.4 317.4 335.2 309.3C334.7 302.2 335.1 295.9 335.1 295.9L356.1 294.5C356.9 297.6 357.3 300.1 357.4 302.2C358 305.4 361.1 328.3 362 332.5C362 332.7 362.1 332.9 362.1 333.1C366.7 339.9 370.1 366 370.9 370.5C371 371.1 370.7 371.1 370.3 371C369.2 370.9 369.6 369.9 368.1 370.1C367.3 370.2 367.2 371.3 367.2 371.3C365.2 365.3 358.3 344 355.2 337.7C354.7 336.7 354.5 335.9 354.4 335.1C351.9 328.1 347.9 316 346.8 310.8C346.2 316.8 345.8 330.2 344.6 336.5C347.4 345 343.5 363 343.9 373.2C342.7 371.5 341.6 371.1 341.2 371.2C340.4 371.3 340 372 340 372C339.2 358.2 336.7 344.6 336 337.5Z" fill="#1C00A0"/>
<path d="M346.6 253.5C344.3 252.9 341.3 253.6 340.1 254.5C334.4 258.6 329.9 262 327.7 263.4C324.5 260.4 318.1 255.2 317.2 254.1C316.5 253.2 315.1 254.5 315.1 255.4C315.1 256.6 316.5 256.7 318.7 259.8C321.8 264.3 322.9 265.3 326 268C326.4 268.4 326.9 268.5 327.4 268.6C327.6 268.6 327.7 268.6 327.9 268.6C328.2 268.6 328.5 268.5 328.8 268.4C330.6 267.8 333.9 266.4 339.9 262.7C344.2 260 345.7 258.7 346.9 257.8C348.9 256 348 253.9 346.6 253.5Z" fill="#EBAF84"/>
<path d="M349.1 245.6C349.1 245.8 349.8 250.7 350.2 254.4C350.4 256.2 349.2 258.1 347.8 258.2C347.8 258.2 347.8 258.2 347.7 258.2C346.4 258.3 344.8 256.8 344.8 255C344.8 251.7 344.4 248.4 344.4 248.4L349.1 245.6Z" fill="#EBAF84"/>
<path d="M354.3 266.3C353.4 269.7 353 273.2 352.7 276.7C352.5 279.3 352.7 281.9 353.3 284.4C353.6 285.9 354 287.4 354.5 288.9C354.6 289.3 356 292.1 356.9 294.1C357.3 295 356.7 296 355.7 296C351 296.1 339.1 296.4 335.3 296.6C334.6 296.6 334.1 296.1 334.2 295.4C334.8 290.2 338.6 277.9 335.2 270.4C332.6 264.7 335.5 264.4 337.2 259.4C337.6 258.2 337.9 256.9 338.6 255.8C339.3 254.8 340.5 254 341.7 253.6C342.3 253.4 343 253.3 343.6 253.2C347.1 252.7 355.5 251.1 356.6 256.1C356.9 257.5 356.8 258.9 356.5 260.2C356.1 261.7 355.5 263.1 355 264.6C354.6 265.1 354.5 265.7 354.3 266.3Z" fill="url(#paint0_linear_44_81)"/>
<path d="M351.4 241.9C351.3 246.1 351.2 247 349.5 248.8C347.8 250.6 345.3 251.6 343.3 251.7C341.2 251.8 339.4 249.7 338.8 248C338.2 246.2 337.3 242 337.6 237.4C337.7 235.1 340.4 232.1 343.3 231.9C346.3 231.7 351.7 231.7 351.4 241.9Z" fill="#EBAF84"/>
<path d="M339.7 371.9C339.5 372.4 332 375.7 333.9 376.2C335.8 376.7 338 376.2 339.1 375.9C340.2 375.6 341.3 375.5 342.6 375.5C344.3 375.4 344.3 375.3 344 373.3C343.4 370.7 340.4 370.3 339.7 371.9Z" fill="#321144"/>
<path d="M367.2 370.8C367 371.3 360.5 375.8 362.4 376.3C364.3 376.8 366.5 376.3 367.6 376C368.7 375.7 371.8 374.2 371.5 372.3C370.9 369.6 367.9 369.3 367.2 370.8Z" fill="#321144"/>
<path d="M350.1 242C349.6 243.5 349.8 244.9 350.6 245.1C351.4 245.4 352.4 244.4 352.9 242.9C353.4 241.4 353.2 240 352.4 239.8C351.7 239.6 350.6 240.6 350.1 242Z" fill="#EBAF84"/>
<path d="M368 370.1C367.9 370.2 367.8 370.2 367.7 370.3C367.7 370.2 367.8 370.1 368 370.1Z" fill="#FFC385"/>
<path d="M370.562 300.887L380.549 289.83L293.946 211.606L283.959 222.663L370.562 300.887Z" fill="url(#paint1_linear_44_81)"/>
<path d="M376.306 294.506L377.446 293.244L290.546 214.752L289.406 216.014L376.306 294.506Z" fill="white"/>
<path d="M373.524 297.536L374.664 296.274L287.764 217.782L286.624 219.043L373.524 297.536Z" fill="white"/>
<path d="M372.416 302.623L382.671 291.269L380.445 289.258L370.19 300.612L372.416 302.623Z" fill="white"/>
<path d="M378.9 303.2L383.9 297.7C385.3 296.1 385.2 293.6 383.6 292.2L382.6 291.3L372.4 302.6L373.4 303.5C375 305 377.4 304.8 378.9 303.2Z" fill="#FF572B"/>
<path d="M283.9 222.7L293.9 211.6L283.8 209.7L279.3 208.8L280.7 213.1L283.9 222.7Z" fill="#EBAF84"/>
<path d="M280.7 213.1L283.8 209.7L279.3 208.8L280.7 213.1Z" fill="#FF572B"/>
<path d="M369.7 270C369 268.6 367.1 265.6 361.3 259.7C357.8 256.1 356.1 254.8 355 253.9C352.9 252.2 351.1 253.5 351 255C350.9 257.4 352.3 260.2 353.3 261.1C358 265.3 361.9 268.7 364 270.6C360.3 273.5 354.4 279 353.2 279.7C353.1 279.7 353.1 279.8 353.1 279.8C351.9 279.9 350.7 280.1 350 280.6C349.3 281 350.7 281.1 351.7 281.1C349.9 282.1 348.7 282.5 348.2 283.5C347.6 284.6 350 284.8 350.8 284.4C351.6 284 354.7 283 355.1 281.9C355.9 281.5 356.7 280.4 359.4 279C364.5 276.5 365.7 275.5 368.9 272.8C369.5 272.3 369.8 271.6 369.8 271C369.9 270.7 369.9 270.3 369.7 270Z" fill="#EBAF84"/>
<path d="M317.5 255.7C318 255.1 318.6 254.2 319 253.2C319.2 252.6 319 251.9 318.3 252C317.7 252.1 316 253.1 315.7 253.9C315.4 254.6 315.5 255.6 315.8 256.2C316.1 256.9 316.8 256.6 317.5 255.7Z" fill="#EBAF84"/>
<path d="M351 252.9L350.7 251.7L343.3 252.5L343.4 253.1L351 252.9Z" fill="#FFB507"/>
<path d="M351.5 233.2C349.8 231.3 344.5 229.4 340.8 232.1C339.6 232.6 338.1 234.1 337.7 235C336.9 236.8 337.3 240.6 337.7 239.4C337.9 238.7 338.6 238.1 339.4 237.5C340.9 238.7 343.5 239.9 345.9 240.7L347.3 249.8H353.9C355.4 235.3 351.5 233.2 351.5 233.2Z" fill="#321144"/>
<path opacity="0.4" d="M180.841 283.5L106.622 318.83L119.516 345.917L193.735 310.587L180.841 283.5Z" fill="#8E8AFF"/>
<path d="M115.3 321.1L173.3 293.5" stroke="#1C00A0" stroke-miterlimit="10"/>
<path d="M121.7 334.5L164.7 314.1" stroke="#1C00A0" stroke-miterlimit="10"/>
<path d="M118.5 327.8L149.4 313.1" stroke="#1C00A0" stroke-miterlimit="10"/>
<path d="M122.2 315.8L111.1 323.2L116.6 340.4C116.6 340.4 120.6 342.2 121.4 343.6C122.1 345 123.4 346.8 122.7 346.7C122 346.6 119.8 344.8 119.4 344.8C119 344.8 120.1 349.7 120.1 349.7C120.1 349.7 116.4 349.2 115 347.1C113.6 345 112.8 341.2 112.8 341.2C112.8 341.2 107.2 330.8 105.1 322.5C104.8 321.2 105.2 319.8 106.3 319C109.8 316.1 117.9 309.4 121 308.2C125 306.5 127.5 312.8 122.2 315.8Z" fill="#EBAF84"/>
<path d="M132.7 337.1L134.1 339.3C134.1 339.3 164.3 337.7 168.4 343C172.5 348.3 163.1 357.6 152.1 364.7C141.1 371.8 144.9 369.6 144.9 369.6C144.9 369.6 155.4 371.1 155.3 372.7C155.2 374.3 135.2 372.7 135.2 372.7L153.1 352.3L128 353.4L122.6 338.4L132.7 337.1Z" fill="#18008A"/>
<path d="M131.8 336.1L132.7 342C132.7 342 146.7 350.9 152.2 358.6C157.7 366.3 162.3 374.7 160.1 377.9C156.4 383.5 120.9 368.5 120.9 368.5L122 374.4C122 374.4 125.3 376.7 124.7 377.6C124.1 378.5 115.7 376.3 115.7 376.3C115.7 376.3 112.5 363 113.6 360.2C114.7 357.4 121.6 363.7 121.6 363.7L139.4 365.9C139.4 365.9 125.9 359.5 118.6 353.9C113.2 349.7 111.9 342.5 115.3 336.2H131.8V336.1Z" fill="#1C00A0"/>
<path d="M121.6 363.6L134.7 365.2C134.2 366.3 133.3 369.1 134.6 373.7C127.1 371.1 120.9 368.4 120.9 368.4L122 374.3C122 374.3 125.3 376.6 124.7 377.5C124.1 378.4 115.7 376.2 115.7 376.2C115.7 376.2 112.5 362.9 113.6 360.1C114.7 357.3 121.6 363.6 121.6 363.6Z" fill="#EBAF84"/>
<path d="M119.8 362.1L121.6 363.6L121.2 370.2L122 374.3C122 374.3 125.3 376.6 124.7 377.5C124.3 378.1 121.5 377.8 118.3 376.9C116.7 376.4 115.4 375.1 115 373.4C114.1 369.4 112.7 362 113.5 359.9C114.3 358.2 117.6 360.4 119.8 362.1Z" fill="#FFC385"/>
<path d="M147.4 290.6C147.4 290.6 153.8 299 141.7 301.5C129.7 304 131.7 297.2 132.5 295.6C133.3 293.9 143.2 289 147.4 290.6Z" fill="#FFB507"/>
<path d="M146.2 293.8C146.2 293.8 145 299 146.2 300.9H144.4C144.4 300.9 143.4 302.9 142.6 304.3C141.9 305.7 139.5 303.7 138.6 304.3C137.7 304.9 136 309.9 136 309.9L127 307.2L134.5 291.6L146.2 293.8Z" fill="#EBAF84"/>
<path d="M138.4 306.3C138.4 306.3 135.2 306.8 130.7 304.1L129.1 305.7L123.3 306.3C123.3 306.3 118.1 312.8 117.2 320.7C116.3 328.6 112.5 339.3 114 339.6C115.5 339.9 130.2 340.3 132.8 339.6C134.2 339.2 132.1 329.4 134.2 327.4C136.3 325.4 139.2 323.9 140.2 320.7C141.6 316.1 137.8 308.9 137.8 308.9L138.4 306.3Z" fill="url(#paint2_linear_44_81)"/>
<path d="M153.8 327C153.8 327 145.4 318.5 143.2 315.5C141 312.6 137.1 309.8 134.7 312.9C132.6 315.5 136.3 319.5 137.1 320.7C137.7 321.6 146.6 329.6 150.7 333.3C151.9 334.4 153.8 334.6 155.2 333.8L171.4 324.8C171.4 324.8 172.9 325.6 174.9 325.3C176.9 325.1 176.6 325.1 177.5 324.3C178.4 323.5 181.2 321.6 181.2 320.4C181.2 320.4 175 321.3 174 320.5C173.1 319.6 175 317 174.1 316.2L170.7 320.5L153.8 327Z" fill="#EBAF84"/>
<path d="M148.7 290.5C148.3 285.8 140.5 284.4 136 286.2C131.4 288 130.9 292 126.9 293.8C122.9 295.6 122.8 299.2 120.7 301.3C118.6 303.4 115.2 307.1 117.4 311.3C119.7 315.5 125.5 310 128.8 309.1C132.1 308.2 131.1 306 133 303.2C135 300.4 140.3 300.8 141.2 295.9C141.2 295.9 149.2 296.9 148.7 290.5Z" fill="#321144"/>
<path d="M201.7 164.4C201.7 164.4 210.8 167.2 211.6 169.3L196.7 168L199 164.2L201.7 164.4Z" fill="#25232A"/>
<path d="M208.2 164.4C208.2 164.4 217.3 167.2 218.1 169.3L203.2 168L205.5 164.2L208.2 164.4Z" fill="#25232A"/>
<path d="M194.6 101.8L195.6 108.6C195.6 108.6 219.5 120.7 220.3 127.7C221 134.3 209.9 164.9 209.9 164.9H206.2L206.9 129.7C206.9 129.7 197.8 127.3 183.7 119.1C177.8 115.6 176.9 108 180.4 101.8H194.6Z" fill="#18008A"/>
<path d="M187.6 101.8L188.6 108.6C188.6 108.6 212.5 120.7 213.3 127.7C214 134.3 202.9 164.9 202.9 164.9H199.2L199.9 129.7C199.9 129.7 190.8 127.3 176.7 119.1C170.8 115.6 169.9 108 173.4 101.8H187.6Z" fill="#1C00A0"/>
<path d="M208 53C208.9 53.5 209.3 50 209.4 48.8C209.5 47.6 208.7 46.6 207.8 46.1C206.9 45.7 205.7 44.9 204.7 44.9C202.3 44.9 202.3 44.9 199.9 44.9C198.9 44.9 197.8 44.9 196.9 45.4C195.2 46.3 194.1 48.5 193.9 50.7C193.7 52.8 194.2 54.9 194.6 57C194.9 58.4 195.4 59.9 196.5 60.3C197.6 60.7 198.9 59.9 199.8 58.9C201.2 57.2 202.7 58.1 203.9 56.2C205.1 54.3 204.8 52.7 206.7 53" fill="#321144"/>
<path d="M205.2 88.2L204.9 96.2L216.7 104.6L219.2 105.2C219.9 105.4 220.5 105.9 220.8 106.6L220.9 106.8L218.2 106.9L220.4 110.2C220.8 110.8 220.6 111.7 219.9 112.1L218.5 112.8C218 113.1 217.4 112.9 217 112.5L211.5 106.4L199.1 99.4C198.3 99 197.8 98.1 197.9 97.2L198.6 86.7L205.2 88.2Z" fill="#EBAF84"/>
<path d="M205.1 73.7L207.4 89.8L197.2 91.7L198.4 78.7L205.1 73.7Z" fill="url(#paint3_linear_44_81)"/>
<path d="M197.9 65.3C194.2 64.3 186.9 65.5 183.3 70.7C179.7 75.9 171.3 96.1 171.3 106C171.3 106 184.1 108.3 195.6 105.2C195.6 105.2 197.9 93.1 200.1 88.1C202.3 83.1 202.1 83.3 205.2 73.7C205.1 73.7 203.9 66.9 197.9 65.3Z" fill="url(#paint4_linear_44_81)"/>
<path d="M206.9 52.1L207.4 57.5L205.8 57.4C205.8 57.4 205.8 60 205.7 61.2C205.6 62.3 204.8 63.4 202.1 62.8L200.8 70C200.8 70 197 71.2 194.2 65.2L196.3 58.3C196.3 58.3 194.4 57.8 194.4 55.9C194.4 53.9 196.9 55.1 196.9 55.1L197.2 58.9L199 59.4L199.3 53C199.3 53 203.5 54.2 204.8 53.2C205.5 52.7 206 52 206 52L206.9 52.1Z" fill="#EBAF84"/>
<path d="M182.8 112.7L199.1 119.1L225.8 119.6L238.8 99.2L211.3 97.5L199.5 117.3L182.9 111.3L182.8 112.7Z" fill="#AEA2E9"/>
<path d="M222.2 109C221.8 109.9 221 110.5 220.2 110.2C219.5 110 219.2 109 219.5 108.1C219.8 107.2 220.7 106.6 221.5 106.9C222.3 107.1 222.6 108.1 222.2 109Z" fill="#F3F0D8"/>
<path d="M185.8 85.8L184.7 96.1L198 108.2C198 108.2 205.3 109.6 205.3 110.3C205.4 111 201.8 111.1 201.8 111.1L204.7 115.8L204.8 115.9C205.9 117 205.4 118.8 204 119.2L203.1 119.5C202.5 119.7 201.8 119.5 201.2 119.1L199.1 117.3C198.9 117.1 198.7 116.9 198.6 116.7L195.1 111.6L178.8 100.4C178.1 99.9 177.7 99.1 177.6 98.3L177.1 85.1L185.8 85.8Z" fill="#EBAF84"/>
<path d="M186.5 68C190.1 69.1 190.6 73.1 190.2 76.8C189.8 80.5 190.3 86.8 190.3 86.8L176.4 84.4C176.4 84.4 178.5 73.5 179.7 71.4C181.5 68.2 184 67.2 186.5 68Z" fill="url(#paint5_linear_44_81)"/>
<path d="M128 327.924C128 327.924 131.543 326.54 134.536 326.52" stroke="#F96786" stroke-width="0.5" stroke-miterlimit="10" stroke-linecap="round" stroke-linejoin="round"/>
</g>
<path opacity="0.22" d="M122 236C122 241.588 102.28 246 78 246C53.7199 246 34 241.588 34 236C34 230.412 53.7199 226 78 226C102.28 226 122 230.559 122 236Z" fill="#AEA2E9"/>
<path d="M425.407 312.115H435.007V317.758H425.407V312.115Z" fill="#FF897F"/>
<path d="M435.007 317.025C435.007 317.025 435.154 323.108 435.007 324.134C435.007 324.134 430.244 324.427 427.825 324.427C425.407 324.427 418.591 324.72 416.392 324.134C414.267 323.621 415.073 322.742 415.586 321.862C416.099 320.983 425.553 317.025 425.553 317.025C425.553 317.025 431.05 317.905 435.007 317.025Z" fill="#282E4E"/>
<path d="M439.771 236.044C439.771 236.044 440.064 244.326 439.771 255.978C439.478 267.557 436.546 313.947 436.546 313.947L424.088 314.534L419.47 236.044H439.771Z" fill="url(#paint6_linear_44_81)"/>
<path d="M426.579 171.406L425.773 173.898C425.773 173.898 423.794 173.898 423.574 174.557C423.355 175.217 424.601 176.243 424.601 176.243C424.601 176.243 423.281 181.519 424.747 183.938C426.213 186.356 435.154 185.037 435.154 185.037C435.154 185.037 438.818 184.671 440.87 180.567C442.922 176.463 444.388 173.385 443.582 169.281C443.142 166.862 438.818 165.25 434.714 165.396C431.05 165.396 427.752 167.888 426.579 171.406Z" fill="#FF897F"/>
<path d="M429.95 184.524L429.364 189.947L438.378 188.628L439.111 182.985L429.95 184.524Z" fill="#FF897F"/>
<path d="M429.804 167.009C429.804 167.009 431.196 169.281 434.274 170.526C434.274 170.526 433.175 174.85 434.054 175.29C434.934 175.73 434.861 174.63 436.546 174.484C438.232 174.337 438.378 176.463 437.865 178.441C437.352 180.347 435.3 180.86 434.567 180.713C433.835 180.567 433.615 181.446 435.08 182.765C436.546 184.084 438.891 185.403 438.891 185.403C438.891 185.403 445.487 179.321 446.66 176.243C447.832 173.165 446.66 171.406 446.66 171.406C446.66 171.406 447.466 167.375 444.168 165.323C440.87 163.271 434.201 162.831 431.489 163.051C428.778 163.344 428.998 164.81 428.998 164.81C428.998 164.81 427.825 164.883 427.312 166.349C426.799 167.815 427.898 168.987 427.898 168.987C427.898 168.987 428.998 167.522 429.804 167.009Z" fill="#282E4E"/>
<path d="M438.525 187.749C438.525 187.749 442.189 193.025 443.875 198.522C445.56 204.018 439.771 236.044 439.771 236.044H419.544C419.544 236.044 420.13 204.971 421.669 199.548C423.574 192.659 429.437 189.288 429.437 189.288L438.525 187.749Z" fill="url(#paint7_linear_44_81)"/>
<path d="M432.442 236.557L432.882 311.676" stroke="#F96786" stroke-miterlimit="10" stroke-linecap="round" stroke-linejoin="round"/>
<path d="M436.693 311.676H423.721" stroke="#F96786" stroke-miterlimit="10" stroke-linecap="round" stroke-linejoin="round"/>
<path d="M442.629 197.203C445.487 202.406 450.837 213.032 453.842 224.245L445.34 227.69L431.783 202.919C430.83 201.233 430.757 199.181 431.563 197.422C431.563 197.349 431.636 197.349 431.636 197.276C433.835 192.879 440.21 192.879 442.629 197.203Z" fill="url(#paint8_linear_44_81)"/>
<path d="M428.998 241.028C428.998 241.028 426.872 241.467 426.872 241.028C426.872 240.588 427.972 240.075 429.144 240.075C429.437 240.075 429.804 240.075 430.097 240.075V239.855L429.218 239.709C429.218 239.709 427.239 240.441 427.166 240.075C427.019 239.709 428.485 238.609 429.364 238.683C429.877 238.683 430.537 238.829 431.05 238.976L432.002 239.049C431.27 238.609 430.61 238.316 430.757 238.023C430.976 237.657 431.343 237.73 432.589 238.243C433.395 238.536 434.128 239.049 434.494 239.269H434.861L445.487 227.763L453.988 224.318C453.988 224.318 456.407 229.815 452.669 234.285C448.931 238.756 436.106 244.692 436.106 244.692C434.714 245.278 430.61 243.666 430.61 243.666L429.804 243.519C429.804 243.519 427.679 243.959 427.679 243.519C427.679 243.08 428.778 242.567 429.95 242.567C430.17 242.567 430.317 242.567 430.537 242.567V242.493L429.364 242.274C429.364 242.274 427.239 242.713 427.239 242.274C427.239 241.834 428.338 241.321 429.511 241.321C429.804 241.321 430.17 241.321 430.463 241.321V241.248L428.998 241.028Z" fill="#FF897F"/>
<path d="M433.688 183.864C433.688 183.864 431.636 185.403 429.804 185.33" stroke="#BA6561" stroke-miterlimit="10" stroke-linecap="round" stroke-linejoin="round"/>
<path d="M434.787 239.269C434.787 239.269 433.688 241.687 433.835 242.713" stroke="#BA6561" stroke-miterlimit="10" stroke-linecap="round" stroke-linejoin="round"/>
<path d="M54.9889 203.735L55.6079 224.647L52.4212 235.214C52.4212 235.214 51.8027 235.956 56.9117 237.165C62.0206 238.374 64.9559 236.589 64.9559 236.589L64.0428 224.983L66.3862 206.513L54.9889 203.735Z" fill="#FF897F"/>
<path d="M85.2244 206.994L88.3097 226.17L88.9679 235.202L108.331 237.222L97.917 226.954L95.8909 206.191L85.2244 206.994Z" fill="#FF897F"/>
<path d="M54.427 228.864C54.427 228.864 55.1011 232 58.3982 232.621C63.4361 233.56 64.3895 229.853 64.3895 229.853C64.3895 229.853 65.5954 236.729 65.5594 238.31C65.5234 239.892 61.6643 241.602 58.0616 241.308C53.997 240.976 52.1287 238.799 51.312 237.412C50.5023 235.938 54.427 228.864 54.427 228.864Z" fill="#464F96"/>
<path d="M88.4724 228.736C88.4724 228.736 87.7819 232.641 88.0159 234.333C88.2499 236.024 88.5338 237.104 88.9886 237.229C89.351 237.346 96.1583 238.254 97.8211 238.389C99.4768 238.612 107.03 239.493 109.368 239.331C111.706 239.17 112.083 239.112 112.531 238.181C112.979 237.249 102.741 231.661 102.741 231.661C102.741 231.661 100.168 232.419 96.281 232.19C92.3869 232.048 90.1423 228.785 88.4724 228.736Z" fill="#464F96"/>
<path d="M78.4723 69.7428L77.8803 77.0005L68.5006 75.7072L67.8642 65.2686L78.4723 69.7428Z" fill="#FF897F"/>
<path d="M128.488 82.4488C127.316 82.0011 125.738 81.9605 124.616 82.0449L124.651 81.6077C126.335 81.481 129.611 81.2201 127.984 80.6473C126.087 79.9644 122.975 80.5027 122.975 80.5027L120.168 79.5696C121.092 78.5006 121.924 76.2799 121.256 76.4895C120.588 76.6991 117.922 79.7385 117.119 80.4652L103.408 92.3742L86.5573 75.5077C84.4605 77.2731 83.1359 86.6716 85.6287 91.4521C88.2282 96.0653 102.943 102.635 102.943 102.635C108.962 102.95 117.528 90.2691 120.081 86.3402L123.136 86.5015C123.136 86.5015 123.968 86.5693 124.621 86.5346C126.391 86.5029 128.722 86.4289 127.286 85.7837C126.476 85.4536 125.56 85.2908 124.636 85.2154L124.665 84.8657C126.349 84.739 129.795 84.668 128.175 84.0077C127.188 83.5751 125.795 83.5495 124.679 83.5465L124.701 83.2842C126.1 83.2223 130.286 83.2116 128.488 82.4488Z" fill="#FF897F"/>
<path d="M83.133 49.0854C83.133 49.0854 85.5599 60.3743 85.4448 65.2062C85.3225 70.1255 81.7687 72.6524 77.5193 72.3058C73.27 71.9592 69.6822 69.2019 69.6822 69.2019L65.0875 59.4086C63.3405 55.7452 64.898 51.471 68.5867 49.5713C70.136 48.8175 71.7778 48.0712 73.5829 47.6022C79.4814 45.9708 83.133 49.0854 83.133 49.0854Z" fill="#FF897F"/>
<path d="M66.7146 59.9814C66.7146 59.9814 63.837 58.7785 62.6782 60.4444C61.5194 62.1104 63.693 65.1044 65.6468 66.232C67.6007 67.3596 70.7276 66.6464 70.7276 66.6464L66.7146 59.9814Z" fill="#FF897F"/>
<path d="M93.7693 125.037C93.7693 125.037 88.9365 127.283 79.0093 127.002C74.831 126.925 70.4111 126.388 66.5455 125.897C61.2091 125.198 57.2725 124.437 57.2725 124.437L60.2127 106.632L55.0343 76.6333C58.5667 74.3688 68.3451 73.0538 68.3451 73.0538C68.3451 73.0538 72.4301 76.5559 76.7079 76.5527C78.2002 76.4984 78.1656 73.5028 78.1656 73.5028C78.1656 73.5028 83.6444 73.5976 85.9677 74.7554C86.3301 74.8729 86.593 75.0704 86.8487 75.3554C92.4749 81.6238 88.7291 108.165 88.7291 108.165L93.7693 125.037Z" fill="url(#paint9_linear_44_81)"/>
<path d="M81.783 48.5352C81.783 48.5352 81.1143 51.0333 78.1219 53.518C75.0371 55.9951 72.4363 55.959 72.4363 55.959C72.4363 55.959 71.576 57.3852 70.4104 57.9943C69.2448 58.6034 69.2448 58.6034 69.2448 58.6034C69.2448 58.6034 69.976 61.0397 69.3715 62.7508C69.3715 62.7508 67.3188 59.4146 65.1728 59.5036C63.0267 59.5926 61.9175 61.7907 63.2457 63.7476C64.4816 65.6969 67.2882 66.63 67.9349 66.6827L68.2745 71.6397C68.2745 71.6397 66.7608 71.9564 64.6008 71.076L64.5084 71.0685C63.5279 70.5484 62.2129 71.8495 59.9887 71.7561C57.7645 71.6627 57.502 70.3209 55.6117 70.6949C53.7213 71.0688 50.1611 71.3946 49.2455 67.7989C48.3299 64.2033 51.3715 63.3952 50.5265 61.2137C49.774 59.0397 51.1032 57.5637 53.1216 56.7601C55.14 55.9565 53.628 50.5518 56.6558 48.7742C59.6906 46.9092 60.4439 46.7946 61.1975 45.5357C61.9512 44.2768 64.73 43.2712 67.1246 43.5545C70.1659 43.8906 69.6552 41.0322 73.876 41.7286C78.8287 42.5727 79.6808 44.6667 79.6808 44.6667C79.6808 44.6667 81.9974 44.7677 84.3204 47.0697C88.1992 50.819 86.9969 55.2982 84.8002 58.2878C84.7931 58.3753 82.9693 49.9523 81.783 48.5352Z" fill="#282E4E"/>
<path d="M55.4537 76.0514L37.4564 91.4839L24.6622 78.4691C23.9874 77.6218 21.4586 74.4228 20.8333 74.1077C20.1157 73.7851 20.8541 76.1339 21.6922 77.2586L18.8425 77.9944C18.8425 77.9944 15.7444 77.2135 13.8398 77.7624C12.2195 78.2464 15.4384 78.685 17.1793 79.003L17.1437 79.4402C16.0423 79.2624 14.4719 79.1343 13.2282 79.561C11.4088 80.2048 15.6582 80.5514 17.0367 80.7519L17.0153 81.0142C15.9991 80.9313 14.5211 80.8107 13.5617 81.1726C11.9342 81.744 15.345 82.1103 17.0007 82.3333L16.9721 82.6831C16.0412 82.6952 15.018 82.6997 14.2504 82.9892C12.8148 83.4883 15.1171 83.7641 16.8723 83.9073C17.4266 83.9525 18.3503 84.0278 18.3503 84.0278L21.413 84.1016C23.6715 88.3349 31.2355 101.627 37.2685 101.767C37.2685 101.767 55.633 94.3749 58.4199 89.8489C61.2921 85.418 57.4357 77.9735 55.4537 76.0514Z" fill="#FF897F"/>
<path d="M100.488 207.975L95.8121 208.297L84.307 209.12L77.1624 148.505L75.6636 146.358L70.6352 208.004L52.1598 206.497C52.1598 206.497 50.8015 162.727 51.8714 149.611C52.9413 136.495 57.8207 121.136 57.8207 121.136C75.5839 127.955 93.1233 122.696 93.1233 122.696C93.2724 123.148 93.4215 123.6 93.5706 124.052C98.6245 143.038 100.488 207.975 100.488 207.975Z" fill="url(#paint10_linear_44_81)"/>
<path d="M37.4564 91.4839C37.4564 91.4839 39.9995 94.508 41.0506 96.4423" stroke="#BA6561" stroke-miterlimit="10" stroke-linecap="round" stroke-linejoin="round"/>
<path d="M103.507 92.2943C103.507 92.2943 102.455 94.9372 103.094 97.3659" stroke="#BA6561" stroke-miterlimit="10" stroke-linecap="round" stroke-linejoin="round"/>
<path d="M78.2583 72.3661C78.2583 72.3661 71.6282 72.7055 68.9721 67.6475" stroke="#BA6561" stroke-miterlimit="10" stroke-linecap="round" stroke-linejoin="round"/>
<path d="M61.0798 106.262L64.405 107.678" stroke="#F96786" stroke-miterlimit="10" stroke-linecap="round" stroke-linejoin="round"/>
<path d="M54.7545 132.505C54.7545 132.505 60.9513 131.778 62.4171 125.208" stroke="#7954B3" stroke-miterlimit="10"/>
<path d="M57.0667 123.539C57.0667 123.539 75.9809 131.068 93.7693 125.037" stroke="#7954B3" stroke-miterlimit="10"/>
<path d="M75.7489 146.453C75.7489 146.453 77.4626 142.544 81.2151 141.001" stroke="#7954B3" stroke-miterlimit="10"/>
<path d="M89.9601 126.135C89.9601 126.135 91.5926 132.341 95.3655 133.969" stroke="#7954B3" stroke-miterlimit="10"/>
<path d="M52.0192 201.38C52.0192 201.38 58.6843 202.892 71.1413 202.94" stroke="#7954B3" stroke-miterlimit="10"/>
<path d="M100.369 202.596C100.369 202.596 91.6137 203.906 83.7331 203.615" stroke="#7954B3" stroke-miterlimit="10"/>
<path d="M65.801 73.4625C65.801 73.4625 69.566 77.4666 75.4782 77.9488C81.3903 78.4311 79.8427 73.4636 79.8427 73.4636" stroke="#F96786" stroke-miterlimit="10" stroke-linecap="round" stroke-linejoin="round"/>
<path d="M68.8925 95.9846C68.8925 95.9846 77.7114 95.0315 85.3078 95.387" stroke="#F96786" stroke-miterlimit="10" stroke-linecap="round" stroke-linejoin="round"/>
<path d="M311.755 60.3754C311.755 59.4372 319.813 25 361.59 25C389.681 25 414.791 43.3776 414.791 69.7574C414.791 88.1349 401.105 99.3381 383.169 107.009C376.822 109.824 376.601 115.067 376.601 121.248V131.733H345.696V111.314C345.696 103.091 346.082 96.3579 354.471 90.8943C365.895 83.6095 376.546 83.0024 376.546 69.7574C376.546 60.7617 369.813 54.4151 361.369 54.4151C347.903 54.4151 341.336 65.6735 339.294 73.6757L311.755 60.3754ZM382.561 163.742C382.561 175.553 373.014 185.1 361.038 185.1C349.228 185.1 339.68 175.553 339.68 163.742C339.68 151.767 349.228 142.219 361.038 142.219C373.014 142.219 382.561 151.767 382.561 163.742Z" fill="url(#paint11_linear_44_81)"/>
<path opacity="0.47" d="M311.259 66.5013C311.259 65.6183 319.592 28.4768 358.665 28.4768C384.935 28.4768 408.389 45.6403 408.389 70.3092C408.389 87.4727 395.586 97.9584 378.809 105.133C372.848 107.782 372.683 112.638 372.683 118.433V128.257H343.764V109.162C343.764 101.435 344.096 95.1438 351.987 90.0665C362.694 83.2232 372.628 82.7265 372.628 70.2541C372.628 61.8655 366.336 55.9052 358.444 55.9052C345.862 55.9052 338.908 71.3578 336.976 78.8634L311.259 66.5013ZM383.334 161.369C383.334 172.407 374.394 181.347 363.191 181.347C352.153 181.347 343.213 172.407 343.213 161.369C343.213 150.166 352.153 141.226 363.191 141.226C374.394 141.226 383.334 150.166 383.334 161.369Z" stroke="white" stroke-miterlimit="10"/>
<path d="M276.049 72.9031C275.994 72.6823 275.111 64.8456 283.941 61.7551C289.846 59.658 296.524 61.6447 298.455 67.2187C299.835 71.0819 297.793 74.4483 294.537 77.4285C293.378 78.477 293.764 79.636 294.206 80.9053L294.978 83.1128L288.466 85.4307L286.976 81.1261C286.369 79.4152 285.928 77.9252 287.307 76.1592C289.184 73.7861 291.391 72.8479 290.398 70.0333C289.735 68.1569 287.859 67.2739 286.038 67.9362C283.223 68.9295 282.671 71.7993 282.837 73.6205L276.049 72.9031ZM298.676 89.4042C299.559 91.8877 298.234 94.5919 295.696 95.4749C293.212 96.3579 290.508 95.0334 289.625 92.5499C288.742 90.0113 290.011 87.3071 292.55 86.4241C295.034 85.5963 297.793 86.9208 298.676 89.4042Z" fill="url(#paint12_linear_44_81)"/>
<path d="M426.491 77.0973C426.546 76.8766 430.906 70.3092 439.681 73.5653C445.586 75.7176 449.394 81.5124 447.352 87.0863C445.917 90.9495 442.22 92.2188 437.805 92.4396C436.259 92.5499 435.818 93.5985 435.321 94.923L434.493 97.1305L428.036 94.7575L429.637 90.4528C430.299 88.742 430.851 87.3623 433.058 86.8656C436.039 86.2033 438.301 86.9208 439.35 84.1614C440.067 82.285 439.129 80.4086 437.363 79.7464C434.548 78.6978 432.286 80.519 431.237 82.0643L426.491 77.0973ZM433.334 104.25C432.396 106.733 429.692 108.003 427.153 107.064C424.67 106.126 423.401 103.422 424.339 100.939C425.277 98.3999 428.036 97.1857 430.465 98.0687C433.003 99.0069 434.217 101.766 433.334 104.25Z" fill="url(#paint13_linear_44_81)"/>
<path d="M318.544 87.1415C318.599 87.0312 320.917 83.4991 325.663 85.21C328.864 86.3689 330.906 89.5146 329.802 92.4948C329.029 94.5919 327.042 95.2542 324.669 95.3645C323.842 95.4197 323.566 96.0268 323.345 96.689L322.903 97.848L319.427 96.5787L320.254 94.2608C320.585 93.3226 320.917 92.6051 322.131 92.3292C323.731 91.9981 324.945 92.3844 325.497 90.8391C325.884 89.8458 325.387 88.7972 324.449 88.4661C322.903 87.9142 321.689 88.9076 321.137 89.7354L318.544 87.1415ZM322.241 101.822C321.744 103.146 320.254 103.808 318.93 103.312C317.605 102.815 316.888 101.325 317.385 100C317.881 98.6206 319.371 97.9584 320.696 98.4551C322.076 99.0069 322.738 100.442 322.241 101.822Z" fill="#B6B6CE"/>
<path d="M419.813 44.095C419.813 43.9846 420.31 38.9625 426.215 38.1899C430.189 37.6932 434.052 39.7903 434.548 43.5431C434.88 46.137 433.169 47.9582 430.74 49.393C429.913 49.8897 429.968 50.6624 430.078 51.5454L430.244 53.0354L425.884 53.5873L425.498 50.7175C425.332 49.5586 425.277 48.5652 426.381 47.6822C427.871 46.4129 429.361 46.137 429.14 44.2606C428.974 42.9912 427.926 42.2186 426.712 42.3842C424.78 42.6049 424.063 44.3158 423.952 45.5299L419.813 44.095ZM431.734 57.4505C431.955 59.1061 430.796 60.6514 429.085 60.8721C427.429 61.0929 425.884 59.9339 425.663 58.2231C425.442 56.5123 426.601 55.0222 428.312 54.8014C429.968 54.5255 431.513 55.7396 431.734 57.4505Z" fill="#E5E5EC"/>
<path d="M91.317 18.3986C91.3722 18.2882 93.6901 14.7562 98.4362 16.467C101.637 17.6259 103.679 20.7717 102.575 23.7518C101.803 25.8489 99.8159 26.5112 97.4428 26.6216C96.615 26.6768 96.3391 27.2838 96.1183 27.9461L95.6768 29.105L92.2 27.8357L93.0278 25.5178C93.3589 24.5796 93.6901 23.8622 94.9042 23.5862C96.5046 23.2551 97.7188 23.6414 98.2706 22.0962C98.657 21.1028 98.1603 20.0542 97.2221 19.7231C95.6768 19.1712 94.4627 20.1646 93.9108 20.9924L91.317 18.3986ZM95.0146 33.0786C94.5179 34.4031 93.0278 35.0653 91.7033 34.5686C90.3788 34.0719 89.6613 32.5819 90.158 31.2574C90.6547 29.8777 92.1448 29.2154 93.4693 29.7121C94.849 30.264 95.5113 31.6989 95.0146 33.0786Z" fill="#B6B6CE"/>
<path d="M28.0489 11.9642C27.9937 11.7435 27.1107 3.90681 35.9407 0.816292C41.8458 -1.28085 48.5236 0.705917 50.4552 6.27989C51.8349 10.143 49.7929 13.5095 46.5368 16.4896C45.3779 17.5382 45.7642 18.6972 46.2057 19.9665L46.9783 22.174L40.4662 24.4919L38.9761 20.1872C38.369 18.4764 37.9275 16.9863 39.3072 15.2203C41.1836 12.8472 43.3911 11.9091 42.3977 9.09447C41.7355 7.21808 39.8591 6.33508 38.0379 6.99734C35.2233 7.99072 34.6714 10.8605 34.837 12.6817L28.0489 11.9642ZM50.6759 28.4654C51.5589 30.9489 50.2344 33.6531 47.6958 34.5361C45.2123 35.4191 42.5081 34.0946 41.6251 31.6111C40.7421 29.0725 42.0114 26.3683 44.5501 25.4853C47.0335 24.6575 49.7929 25.982 50.6759 28.4654Z" fill="url(#paint14_linear_44_81)"/>
<defs>
<linearGradient id="paint0_linear_44_81" x1="345.594" y1="252.557" x2="345.594" y2="296.6" gradientUnits="userSpaceOnUse">
<stop stop-color="#E45348"/>
<stop offset="1" stop-color="#FFB507"/>
</linearGradient>
<linearGradient id="paint1_linear_44_81" x1="375.556" y1="295.359" x2="288.952" y2="217.135" gradientUnits="userSpaceOnUse">
<stop stop-color="#18008A"/>
<stop offset="1" stop-color="#1C00A0"/>
</linearGradient>
<linearGradient id="paint2_linear_44_81" x1="114" y1="304" x2="130.5" y2="334" gradientUnits="userSpaceOnUse">
<stop offset="0.561853" stop-color="#C64D6A"/>
<stop offset="0.753756" stop-color="#A43361"/>
</linearGradient>
<linearGradient id="paint3_linear_44_81" x1="202.3" y1="73.7" x2="202.3" y2="91.7" gradientUnits="userSpaceOnUse">
<stop stop-color="#E96141"/>
<stop offset="1" stop-color="#FFB507"/>
</linearGradient>
<linearGradient id="paint4_linear_44_81" x1="188.25" y1="64.9777" x2="188.25" y2="106.821" gradientUnits="userSpaceOnUse">
<stop stop-color="#E65846"/>
<stop offset="1" stop-color="#FFB507"/>
</linearGradient>
<linearGradient id="paint5_linear_44_81" x1="183.358" y1="67.7376" x2="183.358" y2="86.8" gradientUnits="userSpaceOnUse">
<stop stop-color="#EA653E"/>
<stop offset="1" stop-color="#FFB507"/>
</linearGradient>
<linearGradient id="paint6_linear_44_81" x1="402.978" y1="252.344" x2="446.095" y2="286.512" gradientUnits="userSpaceOnUse">
<stop stop-color="#CD536C"/>
<stop offset="1" stop-color="#8B1F5A"/>
</linearGradient>
<linearGradient id="paint7_linear_44_81" x1="421.523" y1="255.809" x2="436.166" y2="195.1" gradientUnits="userSpaceOnUse">
<stop offset="0.15" stop-color="#464F96"/>
<stop offset="0.3962" stop-color="#4A4F98"/>
<stop offset="0.6269" stop-color="#55509F"/>
<stop offset="0.8507" stop-color="#6852A9"/>
<stop offset="1" stop-color="#7954B3"/>
</linearGradient>
<linearGradient id="paint8_linear_44_81" x1="444.991" y1="215.339" x2="434.735" y2="195.003" gradientUnits="userSpaceOnUse">
<stop stop-color="#464F96"/>
<stop offset="0.2789" stop-color="#4A4F98"/>
<stop offset="0.5606" stop-color="#56519F"/>
<stop offset="0.8426" stop-color="#6A53AB"/>
<stop offset="1" stop-color="#7954B3"/>
</linearGradient>
<linearGradient id="paint9_linear_44_81" x1="67.9139" y1="75.3153" x2="77.8924" y2="135.649" gradientUnits="userSpaceOnUse">
<stop stop-color="#CD536C"/>
<stop offset="1" stop-color="#8B1F5A"/>
</linearGradient>
<linearGradient id="paint10_linear_44_81" x1="64.1351" y1="120.115" x2="79.2531" y2="211.524" gradientUnits="userSpaceOnUse">
<stop stop-color="#464F96"/>
<stop offset="0.2789" stop-color="#4A4F98"/>
<stop offset="0.5606" stop-color="#56519F"/>
<stop offset="0.8426" stop-color="#6A53AB"/>
<stop offset="1" stop-color="#7954B3"/>
</linearGradient>
<linearGradient id="paint11_linear_44_81" x1="321.812" y1="122.905" x2="420.22" y2="72.2555" gradientUnits="userSpaceOnUse">
<stop stop-color="#7954B3"/>
<stop offset="0.0487664" stop-color="#7153AE"/>
<stop offset="0.2128" stop-color="#5951A1"/>
<stop offset="0.366" stop-color="#4B4F99"/>
<stop offset="0.4969" stop-color="#464F96"/>
<stop offset="0.6394" stop-color="#4A4F98"/>
<stop offset="0.7788" stop-color="#56519F"/>
<stop offset="0.9165" stop-color="#6952AA"/>
<stop offset="1" stop-color="#7954B3"/>
</linearGradient>
<linearGradient id="paint12_linear_44_81" x1="295.244" y1="100.677" x2="287.279" y2="70.0458" gradientUnits="userSpaceOnUse">
<stop stop-color="#DC911B"/>
<stop offset="1" stop-color="#E7B142"/>
</linearGradient>
<linearGradient id="paint13_linear_44_81" x1="424.023" y1="90.0122" x2="447.906" y2="90.0122" gradientUnits="userSpaceOnUse">
<stop stop-color="#DC911B"/>
<stop offset="1" stop-color="#E7B142"/>
</linearGradient>
<linearGradient id="paint14_linear_44_81" x1="47.2435" y1="39.7379" x2="39.2795" y2="9.10694" gradientUnits="userSpaceOnUse">
<stop stop-color="#DC911B"/>
<stop offset="1" stop-color="#E7B142"/>
</linearGradient>
<clipPath id="clip0_44_81">
<rect width="280.5" height="337.2" fill="white" transform="translate(105 45)"/>
</clipPath>
</defs>
</svg>
