<svg width="102" height="38" viewBox="0 0 102 38" fill="none" xmlns="http://www.w3.org/2000/svg">
<path d="M10.2188 13.0938V16.5156H0.1875V13.0938H10.2188ZM2.48438 8.90625H7.375V24.7031C7.375 25.1719 7.43229 25.5312 7.54688 25.7812C7.66146 26.0312 7.84896 26.2083 8.10938 26.3125C8.36979 26.4062 8.70312 26.4531 9.10938 26.4531C9.40104 26.4531 9.65104 26.4427 9.85938 26.4219C10.0677 26.401 10.2604 26.375 10.4375 26.3438V29.875C10.0208 30.0104 9.57812 30.1146 9.10938 30.1875C8.64062 30.2708 8.13021 30.3125 7.57812 30.3125C6.52604 30.3125 5.61458 30.1406 4.84375 29.7969C4.08333 29.4531 3.5 28.9115 3.09375 28.1719C2.6875 27.4219 2.48438 26.4479 2.48438 25.25V8.90625ZM20.5312 30.3125C19.1875 30.3125 17.9844 30.099 16.9219 29.6719C15.8594 29.2448 14.9583 28.6562 14.2188 27.9062C13.4896 27.1458 12.9323 26.2708 12.5469 25.2812C12.1615 24.2917 11.9688 23.2344 11.9688 22.1094V21.5156C11.9688 20.2552 12.1458 19.0938 12.5 18.0312C12.8542 16.9688 13.3698 16.0469 14.0469 15.2656C14.7344 14.474 15.5781 13.8646 16.5781 13.4375C17.5781 13 18.7188 12.7812 20 12.7812C21.1979 12.7812 22.2656 12.9792 23.2031 13.375C24.1406 13.7604 24.9323 14.3177 25.5781 15.0469C26.224 15.7656 26.7135 16.6354 27.0469 17.6562C27.3906 18.6667 27.5625 19.8021 27.5625 21.0625V23.0625H13.9375V19.9219H22.7812V19.5469C22.7812 18.9531 22.6719 18.4323 22.4531 17.9844C22.2448 17.5365 21.9323 17.1927 21.5156 16.9531C21.1094 16.7031 20.5938 16.5781 19.9688 16.5781C19.375 16.5781 18.8802 16.7031 18.4844 16.9531C18.0885 17.2031 17.7708 17.5573 17.5312 18.0156C17.3021 18.4635 17.1354 18.9896 17.0312 19.5938C16.9271 20.1875 16.875 20.8281 16.875 21.5156V22.1094C16.875 22.7656 16.9635 23.3646 17.1406 23.9062C17.3177 24.4479 17.5781 24.9115 17.9219 25.2969C18.2656 25.6823 18.6823 25.9844 19.1719 26.2031C19.6615 26.4219 20.2188 26.5312 20.8438 26.5312C21.6146 26.5312 22.349 26.3854 23.0469 26.0938C23.7448 25.7917 24.349 25.3229 24.8594 24.6875L27.1406 27.2969C26.7969 27.7969 26.3125 28.2812 25.6875 28.75C25.0729 29.2083 24.3333 29.5833 23.4688 29.875C22.6042 30.1667 21.625 30.3125 20.5312 30.3125ZM38.9375 25.2969C38.9375 24.9844 38.8385 24.7083 38.6406 24.4688C38.4531 24.2292 38.1094 24.0104 37.6094 23.8125C37.1198 23.6146 36.4271 23.4167 35.5312 23.2188C34.6875 23.0417 33.901 22.8125 33.1719 22.5312C32.4427 22.2396 31.8073 21.8906 31.2656 21.4844C30.724 21.0677 30.3021 20.5781 30 20.0156C29.6979 19.4427 29.5469 18.7917 29.5469 18.0625C29.5469 17.3542 29.6979 16.6823 30 16.0469C30.3125 15.4115 30.7604 14.849 31.3438 14.3594C31.9375 13.8698 32.6562 13.4844 33.5 13.2031C34.3542 12.9219 35.3229 12.7812 36.4062 12.7812C37.8958 12.7812 39.1823 13.0156 40.2656 13.4844C41.349 13.9427 42.1823 14.5885 42.7656 15.4219C43.349 16.2448 43.6406 17.1875 43.6406 18.25H38.7656C38.7656 17.8125 38.6823 17.4323 38.5156 17.1094C38.349 16.7865 38.0938 16.5365 37.75 16.3594C37.4062 16.1719 36.9531 16.0781 36.3906 16.0781C35.9531 16.0781 35.5677 16.1562 35.2344 16.3125C34.9115 16.4583 34.6562 16.6615 34.4688 16.9219C34.2917 17.1823 34.2031 17.4844 34.2031 17.8281C34.2031 18.0677 34.2552 18.2865 34.3594 18.4844C34.474 18.6719 34.6458 18.849 34.875 19.0156C35.1146 19.1719 35.4219 19.3125 35.7969 19.4375C36.1823 19.5625 36.651 19.6823 37.2031 19.7969C38.3802 20.0156 39.4531 20.3229 40.4219 20.7188C41.401 21.1146 42.1823 21.6615 42.7656 22.3594C43.3594 23.0573 43.6562 23.9792 43.6562 25.125C43.6562 25.875 43.4844 26.5625 43.1406 27.1875C42.8073 27.8125 42.3229 28.3594 41.6875 28.8281C41.0521 29.2969 40.2917 29.6615 39.4062 29.9219C38.5208 30.1823 37.5208 30.3125 36.4062 30.3125C34.8125 30.3125 33.4635 30.026 32.3594 29.4531C31.2552 28.8802 30.4219 28.1615 29.8594 27.2969C29.3073 26.4219 29.0312 25.526 29.0312 24.6094H33.6094C33.6302 25.1719 33.7708 25.6302 34.0312 25.9844C34.3021 26.3385 34.651 26.599 35.0781 26.7656C35.5052 26.9219 35.9844 27 36.5156 27C37.0469 27 37.4896 26.9271 37.8438 26.7812C38.1979 26.6354 38.4688 26.4375 38.6562 26.1875C38.8438 25.9271 38.9375 25.6302 38.9375 25.2969ZM54.9688 13.0938V16.5156H44.9375V13.0938H54.9688ZM47.2344 8.90625H52.125V24.7031C52.125 25.1719 52.1823 25.5312 52.2969 25.7812C52.4115 26.0312 52.599 26.2083 52.8594 26.3125C53.1198 26.4062 53.4531 26.4531 53.8594 26.4531C54.151 26.4531 54.401 26.4427 54.6094 26.4219C54.8177 26.401 55.0104 26.375 55.1875 26.3438V29.875C54.7708 30.0104 54.3281 30.1146 53.8594 30.1875C53.3906 30.2708 52.8802 30.3125 52.3281 30.3125C51.276 30.3125 50.3646 30.1406 49.5938 29.7969C48.8333 29.4531 48.25 28.9115 47.8438 28.1719C47.4375 27.4219 47.2344 26.4479 47.2344 25.25V8.90625ZM62.4531 13.0938V30H57.5625V13.0938H62.4531ZM57.2656 8.71875C57.2656 8.01042 57.5156 7.43229 58.0156 6.98438C58.5156 6.52604 59.1719 6.29688 59.9844 6.29688C60.7969 6.29688 61.4531 6.52604 61.9531 6.98438C62.4635 7.43229 62.7188 8.01042 62.7188 8.71875C62.7188 9.41667 62.4635 9.99479 61.9531 10.4531C61.4531 10.901 60.7969 11.125 59.9844 11.125C59.1719 11.125 58.5156 10.901 58.0156 10.4531C57.5156 9.99479 57.2656 9.41667 57.2656 8.71875ZM70.875 5.98438V30H65.9844V5.98438H70.875ZM81.6094 13.0938L74.25 21.5938L70.3594 25.5L68.4062 22.2031L71.5625 18.125L75.7344 13.0938H81.6094ZM76.4531 30L71.6875 22.2344L75.1875 19.5L82.0469 30H76.4531ZM92.2344 25.9688V18.7188C92.2344 18.2083 92.1562 17.7708 92 17.4062C91.8438 17.0417 91.599 16.7552 91.2656 16.5469C90.9323 16.3385 90.5 16.2344 89.9688 16.2344C89.5208 16.2344 89.1302 16.3125 88.7969 16.4688C88.474 16.625 88.224 16.849 88.0469 17.1406C87.8802 17.4323 87.7969 17.7917 87.7969 18.2188H82.9219C82.9219 17.4583 83.0938 16.75 83.4375 16.0938C83.7812 15.4375 84.2708 14.8594 84.9062 14.3594C85.5521 13.8594 86.3229 13.474 87.2188 13.2031C88.1146 12.9219 89.1198 12.7812 90.2344 12.7812C91.5573 12.7812 92.7344 13.0052 93.7656 13.4531C94.8073 13.8906 95.6302 14.5521 96.2344 15.4375C96.8385 16.3125 97.1406 17.4167 97.1406 18.75V25.8281C97.1406 26.849 97.1979 27.651 97.3125 28.2344C97.4375 28.8073 97.6146 29.3073 97.8438 29.7344V30H92.9219C92.6927 29.5104 92.5208 28.9062 92.4062 28.1875C92.2917 27.4583 92.2344 26.7188 92.2344 25.9688ZM92.8438 19.6875L92.875 22.375H90.4531C89.9115 22.375 89.4427 22.4427 89.0469 22.5781C88.6615 22.7135 88.349 22.901 88.1094 23.1406C87.8698 23.3698 87.6927 23.6406 87.5781 23.9531C87.474 24.2552 87.4219 24.5885 87.4219 24.9531C87.4219 25.2969 87.5052 25.6094 87.6719 25.8906C87.8385 26.1615 88.0677 26.375 88.3594 26.5312C88.651 26.6875 88.9896 26.7656 89.375 26.7656C90.0104 26.7656 90.5521 26.6406 91 26.3906C91.4583 26.1406 91.8125 25.8385 92.0625 25.4844C92.3125 25.1198 92.4375 24.7812 92.4375 24.4688L93.6094 26.5C93.4219 26.9167 93.1927 27.349 92.9219 27.7969C92.651 28.2344 92.3073 28.6458 91.8906 29.0312C91.474 29.4062 90.9688 29.7135 90.375 29.9531C89.7917 30.1927 89.0885 30.3125 88.2656 30.3125C87.2031 30.3125 86.2396 30.099 85.375 29.6719C84.5104 29.2344 83.8177 28.6354 83.2969 27.875C82.7865 27.1146 82.5312 26.2396 82.5312 25.25C82.5312 24.3646 82.6927 23.5781 83.0156 22.8906C83.3385 22.2031 83.8229 21.6198 84.4688 21.1406C85.125 20.6615 85.9479 20.3021 86.9375 20.0625C87.9271 19.8125 89.0833 19.6875 90.4062 19.6875H92.8438Z" fill="url(#paint0_linear_24_245)"/>
<path d="M94.7183 22.4783C94.7183 22.4783 96.4301 23.005 96.5805 23.4L93.7778 23.1555L94.2104 22.4407L94.7183 22.4783Z" fill="#25232A"/>
<path d="M95.941 22.4783C95.941 22.4783 97.6527 23.005 97.8032 23.4L95.0005 23.1555L95.4331 22.4407L95.941 22.4783Z" fill="#25232A"/>
<path d="M93.3828 10.703L93.5709 11.9821C93.5709 11.9821 98.0666 14.2582 98.2171 15.5749C98.3487 16.8164 96.2608 22.5723 96.2608 22.5723H95.5648L95.6965 15.9511C95.6965 15.9511 93.9847 15.4997 91.3325 13.9572C90.2227 13.2989 90.0534 11.8693 90.7118 10.703H93.3828Z" fill="#18008A"/>
<path d="M92.0661 10.703L92.2542 11.9821C92.2542 11.9821 96.7499 14.2582 96.9003 15.5749C97.032 16.8164 94.9441 22.5723 94.9441 22.5723H94.2481L94.3798 15.9511C94.3798 15.9511 92.668 15.4997 90.0158 13.9572C88.906 13.2989 88.7367 11.8693 89.395 10.703H92.0661Z" fill="#1C00A0"/>
<path d="M95.9034 1.52363C96.0727 1.61769 96.1479 0.959325 96.1667 0.733601C96.1856 0.507878 96.0351 0.319775 95.8658 0.225723C95.6965 0.150482 95.4708 0 95.2827 0C94.8312 0 94.8312 0 94.3798 0C94.1917 0 93.9848 0 93.8155 0.0940515C93.4957 0.263344 93.2888 0.67717 93.2511 1.091C93.2135 1.48601 93.3076 1.88103 93.3828 2.27605C93.4393 2.53939 93.5333 2.82154 93.7402 2.89678C93.9471 2.97203 94.1917 2.82154 94.361 2.63344C94.6243 2.31367 94.9065 2.48296 95.1322 2.12556C95.3579 1.76817 95.3015 1.4672 95.6589 1.52363" fill="#321144"/>
<path d="M95.3767 8.14489L95.3203 9.64971L97.5399 11.2298L98.0101 11.3426C98.1418 11.3803 98.2547 11.4743 98.3111 11.606L98.3299 11.6436L97.822 11.6624L98.2359 12.2831C98.3111 12.396 98.2735 12.5653 98.1418 12.6405L97.8785 12.7722C97.7844 12.8286 97.6716 12.791 97.5963 12.7158L96.5617 11.5684L94.2293 10.2516C94.0788 10.1764 93.9847 10.0071 94.0035 9.83781L94.1352 7.86273L95.3767 8.14489Z" fill="#EBAF84"/>
<path d="M95.3579 5.41736L95.7905 8.44581L93.8719 8.80321L94.0976 6.35787L95.3579 5.41736Z" fill="url(#paint1_linear_24_245)"/>
<path d="M94.0035 3.83732C93.3076 3.64922 91.9344 3.87494 91.2572 4.85308C90.5801 5.83121 89 9.63089 89 11.4931C89 11.4931 91.4077 11.9257 93.5709 11.3426C93.5709 11.3426 94.0035 9.06658 94.4174 8.12607C94.8312 7.18555 94.7936 7.22318 95.3767 5.41739C95.3579 5.41739 95.1322 4.13829 94.0035 3.83732Z" fill="url(#paint2_linear_24_245)"/>
<path d="M95.6965 1.35435L95.7905 2.37011L95.4896 2.3513C95.4896 2.3513 95.4895 2.84036 95.4707 3.06609C95.4519 3.273 95.3014 3.47991 94.7936 3.36705L94.549 4.72139C94.549 4.72139 93.8342 4.94712 93.3076 3.8185L93.7026 2.52059C93.7026 2.52059 93.3452 2.42654 93.3452 2.06914C93.3452 1.69294 93.8154 1.91866 93.8154 1.91866L93.8719 2.63345L94.2105 2.7275L94.2669 1.52364C94.2669 1.52364 95.0569 1.74937 95.3014 1.56126C95.4331 1.46721 95.5272 1.33554 95.5272 1.33554L95.6965 1.35435Z" fill="#EBAF84"/>
<path d="M91.1632 12.7534L94.2293 13.9572L99.2516 14.0513L101.697 10.214L96.5241 9.89423L94.3045 13.6187L91.182 12.49L91.1632 12.7534Z" fill="#AEA2E9"/>
<path d="M98.5745 12.0574C98.4992 12.2267 98.3487 12.3396 98.1983 12.2831C98.0666 12.2455 98.0102 12.0574 98.0666 11.8881C98.123 11.7188 98.2923 11.606 98.4428 11.6624C98.5933 11.7 98.6497 11.8881 98.5745 12.0574Z" fill="#F3F0D8"/>
<path d="M91.7275 7.69341L91.5206 9.63087L94.0224 11.9069C94.0224 11.9069 95.3955 12.1703 95.3955 12.3019C95.4143 12.4336 94.7371 12.4524 94.7371 12.4524L95.2826 13.3365L95.3015 13.3553C95.5084 13.5622 95.4143 13.9008 95.151 13.976L94.9817 14.0325C94.8688 14.0701 94.7371 14.0325 94.6243 13.9572L94.2293 13.6187C94.1916 13.581 94.154 13.5434 94.1352 13.5058L93.4769 12.5465L90.4108 10.4397C90.2791 10.3457 90.2039 10.1952 90.1851 10.0447L90.091 7.56174L91.7275 7.69341Z" fill="#EBAF84"/>
<path d="M91.8592 4.34517C92.5363 4.55208 92.6304 5.3045 92.5551 6.00048C92.4799 6.69646 92.574 7.88151 92.574 7.88151L89.9593 7.43006C89.9593 7.43006 90.3543 5.37974 90.5801 4.98472C90.9186 4.38279 91.3889 4.19469 91.8592 4.34517Z" fill="url(#paint3_linear_24_245)"/>
<defs>
<linearGradient id="paint0_linear_24_245" x1="49.5" y1="0" x2="49.5" y2="38" gradientUnits="userSpaceOnUse">
<stop stop-color="#2A9FE6"/>
<stop offset="0.5625" stop-color="#0CC0EB"/>
<stop offset="1" stop-color="#0CC0EB" stop-opacity="0"/>
</linearGradient>
<linearGradient id="paint1_linear_24_245" x1="94.8312" y1="5.41736" x2="94.8312" y2="8.80321" gradientUnits="userSpaceOnUse">
<stop stop-color="#E96141"/>
<stop offset="1" stop-color="#FFB507"/>
</linearGradient>
<linearGradient id="paint2_linear_24_245" x1="92.1883" y1="3.7767" x2="92.1883" y2="11.6475" gradientUnits="userSpaceOnUse">
<stop stop-color="#E65846"/>
<stop offset="1" stop-color="#FFB507"/>
</linearGradient>
<linearGradient id="paint3_linear_24_245" x1="91.2681" y1="4.29581" x2="91.2681" y2="7.88151" gradientUnits="userSpaceOnUse">
<stop stop-color="#EA653E"/>
<stop offset="1" stop-color="#FFB507"/>
</linearGradient>
</defs>
</svg>
