<svg width="20" height="20" viewBox="0 0 20 20" fill="none" xmlns="http://www.w3.org/2000/svg">
<path fill-rule="evenodd" clip-rule="evenodd" d="M11.6362 0.732233C10.6599 -0.244078 9.07697 -0.244078 8.10065 0.732233C7.12434 1.70854 7.12434 3.29146 8.10065 4.26777L11.2013 7.36842H2.5C1.11929 7.36842 0 8.48771 0 9.86842C0 11.2491 1.11929 12.3684 2.5 12.3684H11.2013L8.10065 15.4691C7.12434 16.4454 7.12434 18.0283 8.10065 19.0046C9.07697 19.9809 10.6599 19.9809 11.6362 19.0046L19.0046 11.6362C19.4928 11.148 19.7368 10.5082 19.7368 9.86842C19.7368 9.52945 19.6694 9.20623 19.5471 8.91146C19.4251 8.6166 19.2443 8.34035 19.0046 8.10065L11.6362 0.732233Z" fill="url(#paint0_linear_31_94)"/>
<defs>
<linearGradient id="paint0_linear_31_94" x1="19.2175" y1="9.86842" x2="-0.51939" y2="9.86842" gradientUnits="userSpaceOnUse">
<stop offset="0.197917" stop-color="#FEB311"/>
<stop offset="1" stop-color="#F5D388"/>
</linearGradient>
</defs>
</svg>
