<svg width="617" height="443" viewBox="0 0 617 443" fill="none" xmlns="http://www.w3.org/2000/svg">
<g clip-path="url(#clip0_97_403)">
<path d="M381.3 442.9C511.253 442.9 616.6 382.1 616.6 307.1C616.6 232.1 511.253 171.3 381.3 171.3C251.347 171.3 146 232.1 146 307.1C146 382.1 251.347 442.9 381.3 442.9Z" fill="#F5F5F5"/>
<path d="M536.4 373.7C573.237 373.7 603.1 356.463 603.1 335.2C603.1 313.937 573.237 296.7 536.4 296.7C499.563 296.7 469.7 313.937 469.7 335.2C469.7 356.463 499.563 373.7 536.4 373.7Z" fill="#E0E0E0"/>
<path d="M367.5 355.9L292.2 312.5L378.3 262.8L453.6 306.2L367.5 355.9Z" fill="#E0E0E0"/>
<path d="M162.5 342.5L259.6 398.6L341 351.5L243.9 295.5L162.5 342.5Z" fill="#E0E0E0"/>
<path d="M306.1 78.9V73.4C306.1 72.9 305.7 72.3 305 71.9L271.7 52.8C270.3 52 268 52 266.6 52.8L170.8 107.8C170.1 108.2 169.7 108.7 169.7 109.3V114.8C169.7 115.3 170.1 115.9 170.8 116.3L204.1 135.4C205.5 136.2 207.8 136.2 209.2 135.4L305 80.4C305.7 80 306 79.5 306.1 78.9Z" fill="#F0F0F0"/>
<path d="M170.7 110.7L204 129.8C205.4 130.6 207.7 130.6 209.1 129.8L304.9 74.8C306.3 74 306.3 72.7 304.9 71.9L271.6 52.8C270.2 52 267.9 52 266.5 52.8L170.7 107.8C169.3 108.6 169.3 109.9 170.7 110.7Z" fill="#FAFAFA"/>
<path d="M206.6 130.5V136C205.7 136 204.8 135.8 204 135.4L170.7 116.3C170 115.9 169.6 115.3 169.6 114.8V109.3C169.6 109.1 169.7 108.9 169.8 108.7C169.4 109.4 169.7 110.2 170.7 110.8L204 129.9C204.8 130.3 205.7 130.5 206.6 130.5Z" fill="#E0E0E0"/>
<path d="M224.5 83.8L252.7 99.9L299.4 73.2L271.2 57.1L224.5 83.8Z" fill="#E0E0E0"/>
<path d="M253.1 98.7L225.8 83.1C226.5 81.1 226.5 78.7 225.7 76L252.8 91.5C252.7 91.5 253.3 93.2 253.1 98.7Z" fill="white"/>
<path d="M251.4 89.3C252.8 90.1 254 92.1 254 93.8V99C254 100.7 252.8 101.3 251.4 100.5L224.5 85.1V83.8L251 98.9C251.9 99.4 252.6 99 252.6 98V93.1C252.6 92.1 251.9 90.9 251 90.4L224.5 75.4V73.9L251.4 89.3Z" fill="#EBEBEB"/>
<path d="M224.5 73.9L271.1 47.1L298 62.5C299.4 63.3 300.6 65.3 300.6 67V72.3C300.6 73.1 300.3 73.7 299.8 74L253.2 100.8C253.7 100.5 254 99.9 254 99.1V93.8C254 92.1 252.8 90.1 251.4 89.3L224.5 73.9Z" fill="#FAFAFA"/>
<path d="M253.2 91.2C253.7 92 254 92.9 254 93.8V99.1C254 99.9 253.7 100.5 253.2 100.8L299.8 74C300.3 73.7 300.6 73.1 300.6 72.3V67C300.6 66.2 300.3 65.3 299.8 64.4L253.2 91.2Z" fill="#F0F0F0"/>
<path d="M195.8 43.8L195.5 47.4L227.1 64.3L227.8 62.2L195.8 43.8Z" fill="#EBEBEB"/>
<path d="M227.4 63L196.8 45.4L191.5 48.5L222.6 66.7L227.4 63Z" fill="white"/>
<path d="M216.9 64.8L213.9 100.2C213.9 100.9 214.4 101.8 215 102.2L232.7 112.5C233 112.6 233.3 112.7 233.6 112.8L222.6 68C222.3 68 221.9 67.9 221.7 67.7L220.4 67L216.9 64.8Z" fill="#E0E0E0"/>
<path d="M224 67.6L227.2 64.9L229.5 62.9C229.7 62.5 230 62.2 229.9 61.9L240.8 106.4C241 106.7 241 107.4 240.6 107.7L235.1 112.4C234.7 112.6 234.2 112.7 233.8 112.7L222.8 67.9C223.1 67.9 223.6 67.8 224 67.6Z" fill="#F0F0F0"/>
<path d="M229.5 61.6C230.1 62 230 62.4 229.5 62.9L224 67.6C223.4 68 222.4 68 221.7 67.6L216.9 64.8C216.3 64.4 216.2 63.9 216.7 63.6C217.2 63.3 218.1 63.4 218.7 63.7L222.5 65.9C222.7 66 223 66 223.3 65.9L227.3 62.4C227.5 62.3 227.5 62.1 227.3 62L195.8 43.8L197.3 42.9L229.5 61.6Z" fill="#FAFAFA"/>
<path d="M186.7 45.5L216.7 62.8V120L186.7 102.6V45.5Z" fill="#EBEBEB"/>
<path d="M215.8 63.8L186.7 47.1C185.2 48.8 183 50 180.1 50.7L208.9 67.3C208.9 67.4 210.7 66.9 215.8 63.8Z" fill="white"/>
<path d="M206.1 67.3C207.6 68.2 210.1 68.2 211.7 67.3L216.6 64.5C218.1 63.6 218.1 62.2 216.6 61.3L187.9 44.8L186.7 45.5L214.9 61.8C215.8 62.3 215.8 63.2 214.9 63.7L210.4 66.3C209.5 66.8 208 66.8 207 66.3L178.8 50L177.4 50.8L206.1 67.3Z" fill="#FAFAFA"/>
<path d="M177.4 50.8V107.9L206 124.3C207.5 125.2 210 125.2 211.6 124.3L216.5 121.5C217.3 121.1 217.7 120.5 217.7 119.9V62.8C217.7 63.4 217.3 64 216.5 64.4L211.6 67.2C210.1 68.1 207.6 68.1 206 67.2L177.4 50.8Z" fill="#EBEBEB"/>
<path d="M208.9 67.9C209.9 67.9 210.9 67.7 211.7 67.2L216.6 64.4C217.4 64 217.8 63.4 217.8 62.8V120C217.8 120.6 217.4 121.2 216.6 121.6L211.7 124.4C210.9 124.8 209.9 125.1 208.9 125.1V67.9Z" fill="#F0F0F0"/>
<path d="M450.6 275.3C449.9 263.3 444.6 239.3 451.6 217.2C455.2 205.9 463.3 194 475.5 190.7C479.8 189.5 485.1 189.7 487.2 194.6C487.6 195.4 487.8 196.3 487.8 197.2C488.1 200.9 486.4 204.2 484.5 207.3C480.2 214.3 474.7 220.4 470.4 227.4C468.1 231.1 466.1 234.9 464.4 238.9" stroke="#7654B1" stroke-width="0.8828" stroke-miterlimit="10"/>
<path d="M450.3 283.1C450.3 284.5 450.7 286.3 450.4 287.7C450.3 288.1 450.2 288.6 450.4 289C450.6 289.4 451.1 289.6 451.4 289.3C451.6 289.1 451.9 287.5 452 287.2C452.3 286.4 452.8 285.6 453.2 284.8C454 283.2 454.8 281.6 455.7 280C457.6 276.8 459.6 273.7 461.9 270.7C466.4 264.9 471.6 259.7 477.4 255.2C483.7 250.4 490.7 246.4 496.8 241.4C498.6 239.9 500.4 238.3 501.2 236C502.4 232.7 500.8 228.8 498.1 226.7C495.4 224.5 491.7 223.8 488.2 224.1C484.9 224.3 480.4 225.8 476.7 227.8C469.2 231.9 464 238.2 459.9 245.4C454.4 255 451.2 265.9 450.4 276.9C450.3 279 450.3 281 450.3 283.1Z" stroke="#7654B1" stroke-width="0.8828" stroke-miterlimit="10"/>
<path d="M493.2 230.1C479 234.2 457.9 250.5 450.3 280.9" stroke="#7654B1" stroke-width="0.8828" stroke-miterlimit="10" stroke-linecap="round" stroke-linejoin="round"/>
<path d="M478.6 197.1C470.9 203.2 452.6 222.6 450.3 253.9" stroke="#7654B1" stroke-width="0.8828" stroke-miterlimit="10" stroke-linecap="round" stroke-linejoin="round"/>
<path d="M447.4 130.4L391.8 98.3C390.6 97.6 389.6 97.6 388.8 98C388.1 98.4 385.5 99.9 384.8 100.3C384 100.7 383.5 101.7 383.5 103.1V255.3C383.5 258 385.4 261.3 387.8 262.7L443.4 294.8C444.6 295.5 445.6 295.5 446.4 295.1C447.1 294.7 449.7 293.2 450.4 292.8C451.2 292.4 451.6 291.4 451.6 290V137.8C451.7 135.1 449.8 131.8 447.4 130.4Z" fill="#263238"/>
<path d="M395.6 257.9L391.6 260.2V272.9C391.6 273.6 392.1 274.4 392.7 274.8L394.6 275.9C395.2 276.2 396.1 276.2 396.7 275.9L398.6 274.8C399.2 274.5 399.8 273.7 400.1 273L403.7 262.6L395.6 257.9Z" fill="#263238"/>
<path d="M391.6 272.9C391.6 273.6 392.1 274.4 392.7 274.8L394.6 275.9C395.2 276.2 395.8 276 396.1 275.4L399.7 265L391.7 260.4L391.6 272.9Z" fill="#37474F"/>
<path d="M435.7 281L431.7 283.3V296C431.7 296.7 432.2 297.5 432.8 297.9L434.7 299C435.3 299.3 436.2 299.3 436.8 299L438.7 297.9C439.3 297.6 439.9 296.8 440.2 296.1L443.8 285.7L435.7 281Z" fill="#263238"/>
<path d="M431.7 296C431.7 296.7 432.2 297.5 432.8 297.9L434.7 299C435.3 299.3 435.9 299.1 436.2 298.5L439.8 288.1L431.8 283.5L431.7 296Z" fill="#37474F"/>
<path d="M388.1 100.7L443.7 132.8C446.1 134.2 448 137.5 448 140.2V292.4C448 293.8 447.5 294.7 446.7 295.2C445.9 295.6 444.9 295.6 443.7 294.9L388.1 262.8C385.7 261.4 383.8 258.1 383.8 255.4V103.2C383.8 101.8 384.3 100.9 385.1 100.4C385.9 100 386.9 100.1 388.1 100.7Z" fill="#37474F"/>
<path d="M307.4 308.8L367.5 343.5L451.7 294.9L447.7 292.6L387.6 257.9L307.4 304.2V308.8Z" fill="#455A64"/>
<path d="M367.5 343.5V338.9L451.7 290.3V294.9L367.5 343.5Z" fill="#263238"/>
<path d="M367.6 336.6C378.8 319.6 378.2 289.5 377.3 284.4C377.3 284.4 382 316.2 387.9 325.3" stroke="#FAFAFA" stroke-width="0.7403" stroke-miterlimit="10"/>
<path d="M379.2 295.9C381.1 305.2 403.1 311.7 403.1 311.7" stroke="#FAFAFA" stroke-width="0.7403" stroke-miterlimit="10"/>
<path d="M377.1 305.2C377.7 303.7 380.8 303.5 381.3 305.9C381.3 305.9 381.7 301.4 384.2 302.7" stroke="#FAFAFA" stroke-width="0.7403" stroke-miterlimit="10"/>
<path d="M376.2 311.8C377.3 309.4 381.5 308.1 383.3 313.8C383.3 313.8 383.6 303.5 390.4 306.6" stroke="#FAFAFA" stroke-width="0.7403" stroke-miterlimit="10"/>
<path d="M374.3 320.8C376.7 316.2 383.2 314.4 384.9 318.6C384.9 313.4 390.9 306.8 398.2 310" stroke="#FAFAFA" stroke-width="0.7403" stroke-miterlimit="10"/>
<path d="M370.2 331.9C373 326.8 379.8 317.7 385.8 321.4" stroke="#FAFAFA" stroke-width="0.7403" stroke-miterlimit="10"/>
<path d="M443.7 244V248.6L367.5 292.6L307.4 257.9V253.2L383.6 209.3L443.7 244Z" fill="#263238"/>
<path d="M443.7 244L367.5 288L307.4 253.2L383.6 209.3L443.7 244Z" fill="#455A64"/>
<path d="M443.7 193V197.7L367.5 241.7L307.4 206.9V202.3L383.6 158.3L443.7 193Z" fill="#263238"/>
<path d="M443.7 193L367.5 237L307.4 202.3L383.6 158.3L443.7 193Z" fill="#455A64"/>
<path d="M367.3 176.6L311.7 144.5C310.5 143.8 309.5 143.8 308.7 144.2C308 144.6 305.4 146.1 304.7 146.5C303.9 146.9 303.4 147.9 303.4 149.3V301.5C303.4 304.2 305.3 307.5 307.7 308.9L363.3 341C364.5 341.7 365.5 341.7 366.3 341.3C367 340.9 369.6 339.4 370.3 339C371.1 338.6 371.5 337.6 371.5 336.2V184C371.5 181.3 369.6 178 367.3 176.6Z" fill="#263238"/>
<path opacity="0.2" d="M367.5 200L371.5 197.7V183.8L367.5 186.1V200Z" fill="black"/>
<path opacity="0.2" d="M447.7 153.7L451.7 151.4V137.5L447.7 139.8V153.7Z" fill="black"/>
<path d="M315.4 304.2L311.4 306.5V319.2C311.4 319.9 311.9 320.7 312.5 321.1L314.4 322.2C315 322.5 315.9 322.5 316.5 322.2L318.4 321.1C319 320.8 319.6 320 319.9 319.3L323.5 308.9L315.4 304.2Z" fill="#263238"/>
<path d="M311.4 319.1C311.4 319.8 311.9 320.6 312.5 321L314.4 322.1C315 322.4 315.6 322.2 315.9 321.6L319.5 311.2L311.5 306.6L311.4 319.1Z" fill="#37474F"/>
<path d="M355.5 327.3L351.5 329.6V342.3C351.5 343 352 343.8 352.6 344.2L354.5 345.3C355.1 345.6 356 345.6 356.6 345.3L358.5 344.2C359.1 343.9 359.7 343.1 360 342.4L363.6 332L355.5 327.3Z" fill="#263238"/>
<path d="M351.5 342.2C351.5 342.9 352 343.7 352.6 344.1L354.5 345.2C355.1 345.5 355.7 345.3 356 344.7L359.6 334.3L351.6 329.7L351.5 342.2Z" fill="#37474F"/>
<path d="M307.6 146.9L363.2 179C365.6 180.4 367.5 183.7 367.5 186.4V338.6C367.5 340 367.5 343.6 367.5 343.6C367.5 343.6 364.4 341.8 363.2 341.1L307.6 309C305.2 307.6 303.3 304.3 303.3 301.6V149.4C303.3 148 303.8 147.1 304.6 146.6C305.4 146.2 306.5 146.2 307.6 146.9Z" fill="#37474F"/>
<path opacity="0.2" d="M363.2 179L307.6 146.9C306.4 146.2 305.4 146.2 304.6 146.6C303.8 147 303.3 148 303.3 149.4V163L367.5 200V186.4C367.5 183.6 365.6 180.3 363.2 179Z" fill="black"/>
<path d="M395.6 172.2L439.7 146.7V193" stroke="#FAFAFA" stroke-width="0.7403" stroke-miterlimit="10" stroke-linecap="round" stroke-linejoin="round"/>
<path d="M431.7 181.5L439.7 146.7L423.6 174.5" stroke="#FAFAFA" stroke-width="0.7403" stroke-miterlimit="10" stroke-linecap="round" stroke-linejoin="round"/>
<path d="M439.7 146.7L415.6 169.9" stroke="#FAFAFA" stroke-width="0.7403" stroke-miterlimit="10" stroke-linecap="round" stroke-linejoin="round"/>
<path d="M439.7 185.7C439.7 179.2 432.3 178.8 432.3 178.8C432.8 176.8 432.3 173.7 429.9 171.6C427.5 169.6 425.9 170.7 425.4 171.5C425.4 171.5 425.9 165.5 420.7 165C420.7 165 424.1 158.7 420.7 157.7" stroke="#FAFAFA" stroke-width="0.7403" stroke-miterlimit="10" stroke-linecap="round" stroke-linejoin="round"/>
<path d="M439.7 175.7C439.4 172.4 436.9 168.2 434.3 170.2C434.3 170.2 435 163 429.8 163.9C429.8 163.9 432.2 157.2 427.1 158.8C427.1 158.8 430.8 154.2 427.9 153.5" stroke="#FAFAFA" stroke-width="0.7403" stroke-miterlimit="10" stroke-linecap="round" stroke-linejoin="round"/>
<path d="M461.2 130.6C461.2 129.7 460.6 128.8 459.4 128.1L399.8 93.7C397.4 92.3 393.6 92.3 391.3 93.7L299.6 146.6C298.4 147.3 297.8 148.2 297.8 149.1C297.8 149.9 297.8 152.9 297.8 153.7C297.8 154.6 298.4 155.5 299.6 156.2L359.2 190.6C361.6 192 365.4 192 367.7 190.6L459.4 137.7C460.6 137 461.2 136.1 461.2 135.2C461.2 134.4 461.2 131.4 461.2 130.6Z" fill="#37474F"/>
<path d="M359.2 186L299.6 151.6C297.2 150.2 297.2 148 299.6 146.7L391.3 93.8C393.7 92.4 397.5 92.4 399.8 93.8L459.4 128.2C461.8 129.6 461.8 131.8 459.4 133.1L367.8 186C365.4 187.3 361.6 187.3 359.2 186Z" fill="#455A64"/>
<path opacity="0.1" d="M447.7 144.4L419.6 179.2L371.5 206.9V188.4L447.7 144.4Z" fill="black"/>
<path opacity="0.1" d="M443.7 197.7L419.6 230.1L371.5 257.9V239.3L443.7 197.7Z" fill="black"/>
<path opacity="0.1" d="M443.7 248.6L419.6 281L371.5 308.8V290.3L443.7 248.6Z" fill="black"/>
<path d="M333.3 349.8L259.6 392.3L176.5 344.3L250.3 301.7L333.3 349.8Z" fill="url(#paint0_linear_97_403)"/>
<path opacity="0.5" d="M333.3 349.8L259.6 392.3L176.5 344.3L250.3 301.7L333.3 349.8Z" fill="black"/>
<path d="M250.3 244V301.7L176.5 344.3V286.5L250.3 244Z" fill="url(#paint1_linear_97_403)"/>
<path opacity="0.23" d="M250.3 244V301.7L176.5 344.3V286.5L250.3 244Z" fill="black"/>
<path d="M259.6 334.6V392.3L176.5 344.3V286.5L259.6 334.6Z" fill="url(#paint2_linear_97_403)"/>
<path opacity="0.38" d="M259.6 334.6V392.3L176.5 344.3V286.5L259.6 334.6Z" fill="black"/>
<path d="M333.3 292V349.8L250.3 301.7V244L333.3 292Z" fill="url(#paint3_linear_97_403)"/>
<path opacity="0.4" d="M333.3 292V349.8L250.3 301.7V244L333.3 292Z" fill="black"/>
<path d="M333.3 349.8V292L259.6 334.6V392.3L333.3 349.8Z" fill="url(#paint4_linear_97_403)"/>
<path opacity="0.23" d="M333.3 349.8V292L259.6 334.6V392.3L333.3 349.8Z" fill="black"/>
<path d="M250.3 244L250.4 212L333.2 260.1L333.3 292L250.3 244Z" fill="url(#paint5_linear_97_403)"/>
<path opacity="0.2" d="M250.3 244L250.4 212L333.2 260.1L333.3 292L250.3 244Z" fill="black"/>
<path d="M259.6 334.6L266.5 306.7L339.6 264.5L333.3 292L259.6 334.6Z" fill="url(#paint6_linear_97_403)"/>
<path opacity="0.3" d="M259.6 334.6L266.5 306.7L339.6 264.5L333.3 292L259.6 334.6Z" fill="black"/>
<path d="M176.5 286.5L167.7 257.6L241.5 215L250.3 244L176.5 286.5Z" fill="url(#paint7_linear_97_403)"/>
<path opacity="0.1" d="M176.5 286.5L167.7 257.6L241.5 215L250.3 244L176.5 286.5Z" fill="black"/>
<path d="M176.5 286.5L159.2 262.6L242.2 310.6L259.6 334.6L176.5 286.5Z" fill="url(#paint8_linear_97_403)"/>
<path opacity="0.45" d="M176.5 286.5L159.2 262.6L242.2 310.6L259.6 334.6L176.5 286.5Z" fill="black"/>
<g opacity="0.7">
<path d="M281.3 375.2C281 375.2 280.8 375 280.8 374.7V364.5C280.8 364.3 281 364 281.3 364C281.6 364 281.8 364.2 281.8 364.5V374.7C281.7 375 281.5 375.2 281.3 375.2Z" fill="white"/>
<path d="M280 368.1C279.9 368.1 279.9 368.1 279.8 368.1C279.6 368 279.5 367.7 279.6 367.5L281.2 363.8L283 365.9C283.2 366.1 283.1 366.4 283 366.5C282.8 366.7 282.5 366.6 282.4 366.5L281.5 365.5L280.5 367.9C280.3 368 280.1 368.1 280 368.1Z" fill="white"/>
<path d="M285.5 372.8C285.2 372.8 285 372.6 285 372.3V362.1C285 361.9 285.2 361.6 285.5 361.6C285.8 361.6 286 361.8 286 362.1V372.3C285.9 372.6 285.7 372.8 285.5 372.8Z" fill="white"/>
<path d="M284.2 365.7C284.1 365.7 284.1 365.7 284 365.7C283.8 365.6 283.7 365.3 283.8 365.1L285.4 361.4L287.2 363.5C287.4 363.7 287.3 364 287.2 364.1C287 364.3 286.7 364.2 286.6 364.1L285.7 363.1L284.7 365.5C284.5 365.6 284.3 365.7 284.2 365.7Z" fill="white"/>
</g>
<g opacity="0.7">
<path d="M269.2 382.1C269 382.1 268.9 382.1 268.7 382C268.4 381.8 268.2 381.4 268.2 380.9V379.7C268.2 379.5 268.4 379.2 268.7 379.2C269 379.2 269.2 379.4 269.2 379.7V380.9C269.2 381.1 269.3 381.2 269.3 381.2C269.3 381.2 269.4 381.2 269.6 381.1C270 380.9 270.4 380 270.4 379.1V373.9C270.4 373.7 270.6 373.4 270.9 373.4C271.2 373.4 271.4 373.6 271.4 373.9V379.1C271.4 380.3 270.8 381.5 270.1 381.9C269.7 382 269.4 382.1 269.2 382.1Z" fill="white"/>
<path d="M264.4 377.9V377.1C264.4 373.4 267 368.9 270.2 367.1C271.8 366.2 273.4 366 274.6 366.7C275.8 367.4 276.5 368.8 276.5 370.7V371L264.4 377.9ZM272.9 367.1C272.2 367.1 271.4 367.3 270.6 367.8C267.9 369.4 265.6 373 265.3 376.2L275.5 370.3C275.4 368.9 275 367.8 274.1 367.3C273.8 367.2 273.4 367.1 272.9 367.1Z" fill="white"/>
</g>
<path opacity="0.7" d="M159.2 262.6L242.2 310.6L259.6 334.6L241.3 311.5L159.2 262.6Z" fill="white"/>
<path opacity="0.7" d="M333.3 292L259.6 334.6V392.3L260.9 335.8L333.3 292Z" fill="white"/>
<path d="M225.1 268.9C232.7 267.8 239.7 262.9 244.1 256.7C246.2 253.8 247.7 250.6 248.6 247.2C249.4 244.1 249.9 240.5 249.1 237.3C247.7 231.8 242.6 228.6 237.3 227.9C234.6 227.6 231.8 227.8 229.2 228.7C226.4 229.7 224.2 231.4 222.5 233.7C221.6 234.9 220.7 236.5 220.7 238C220.7 239.4 221.6 240.3 222.9 240.5C224.5 240.8 226.1 240.1 227.5 239.3C229.2 238.4 230.6 237.1 231.8 235.7C234.2 232.7 236.3 229 237.3 225.2C238.2 222 238 218.4 237.3 215.1C236.6 211.8 235.2 208.4 232.8 205.9C230.2 203.3 226.6 202.1 223.1 201.6C219.5 201.1 215.8 201.5 212.4 202.6C210.9 203.1 209.4 203.8 208.3 204.9C207.4 205.7 206.5 207 206.8 208.3C207.2 209.7 209 210.2 210.3 210C212.2 209.8 214 208.6 215.3 207.3C216.8 205.9 218.1 204.1 219.1 202.3C219.8 201 220.3 199.5 220.2 198C220.1 191.7 213.1 187.6 207.6 186.4C206.1 186.1 204.6 186 203.1 186.1C202.6 186.1 202.9 186.9 203.3 186.9C206.2 186.7 209.2 187.5 211.7 188.8C214.2 190 216.5 191.9 217.9 194.3C219.3 196.8 219.1 199.6 217.7 202C216.7 203.7 215.5 205.3 214.1 206.6C212.9 207.7 211.1 208.9 209.4 208.8C208.9 208.8 208.3 208.5 208.1 208C207.9 207.3 208.4 206.6 208.7 206.2C209.5 205.2 210.7 204.6 211.9 204.1C214.8 202.8 218.2 202.4 221.4 202.5C224.7 202.7 228.1 203.5 230.7 205.5C233.2 207.4 234.7 210.3 235.6 213.2C236.5 216.2 236.9 219.6 236.5 222.7C236.1 225.9 234.5 229 232.9 231.7C231 234.8 228.7 237.7 225.2 238.9C224.3 239.2 222.5 239.7 222.2 238.4C221.9 237.2 222.8 235.6 223.5 234.6C224.9 232.4 226.9 230.7 229.3 229.7C231.6 228.8 234.1 228.4 236.6 228.6C241.3 229 246.1 231.4 247.7 236.1C248.7 238.8 248.5 241.9 248 244.7C247.4 247.8 246.3 250.8 244.7 253.5C241.3 259.4 236 263.8 229.8 266.4C228.3 267 226.8 267.6 225.2 268.1C224.8 268.6 224.9 269 225.1 268.9Z" fill="#E0E0E0"/>
<path d="M193.3 182.1C189.2 181.8 183.8 185 185.7 187.3C187.7 189.6 192.9 185.9 192.9 185.9C192.9 185.9 192.4 190.6 194.1 191.1C195.8 191.6 198.1 187.2 196.4 184.4C196.4 184.4 199 185.5 201.4 183.8C203.8 182.1 201.3 180.3 197.8 180.6C197.8 180.6 200.2 172.6 195.3 174.1C192.9 174.8 192 177.7 193.3 182.1Z" fill="#1DAEE9"/>
<path opacity="0.65" d="M193.3 182.1C189.2 181.8 183.8 185 185.7 187.3C187.7 189.6 192.9 185.9 192.9 185.9C192.9 185.9 192.4 190.6 194.1 191.1C195.8 191.6 198.1 187.2 196.4 184.4C196.4 184.4 199 185.5 201.4 183.8C203.8 182.1 201.3 180.3 197.8 180.6C197.8 180.6 200.2 172.6 195.3 174.1C192.9 174.8 192 177.7 193.3 182.1Z" fill="white"/>
<path d="M197 183.8C196.8 183.6 196.5 183.4 196.3 183.2C195.9 182.9 195.6 182.7 195.2 182.4C194.9 182.2 194.5 181.9 194.1 181.7C193.9 181.6 193.7 181.5 193.4 181.4C193.1 181.2 192.8 181.2 192.4 181.2C192 181.2 191.7 181.6 192 182C192.3 182.4 192.7 182.5 193.1 182.7C193.3 182.8 193.5 182.9 193.6 183C194 183.2 194.3 183.5 194.6 183.7C194.9 184 195.3 184.2 195.6 184.4C196.1 184.8 196.7 185.2 197.3 185.4C197.4 185.4 197.4 185.4 197.5 185.4C198.1 185.1 197.3 184.1 197 183.8Z" fill="#455A64"/>
<path d="M515.8 72.1C511.4 78 505.6 110.3 503.4 120.7C492.8 120.4 478.5 119.9 473.2 119.3C467.2 118.7 454.4 117.4 448.1 118.3C432.5 120.3 433.1 130.6 433.5 133.2C433.9 136.3 436.1 137.7 444.5 135.8C446.4 135.4 448.3 135.2 450.2 135.1C451 135.1 452.7 134.7 453.4 135.4C454.4 136.4 451.5 138.1 450.8 138.5C449.7 139.2 448.5 140.1 448.3 141.4C448.2 141.9 448.3 142.5 448.7 142.7C449.1 142.9 449.5 142.8 450 142.7C453.8 141.8 457.5 140.4 461 138.5C462.3 137.8 463.7 137 465.1 136.5C467.3 135.8 469.5 136.2 471.7 136.2C476.4 136.2 501.2 138.7 512.2 139.8C519.8 140.6 520.6 133 523.3 125.4C526.6 115.9 534.2 66.1 534.2 66.1C526.3 65.2 521 65.1 515.8 72.1Z" fill="#FFA8A7"/>
<path d="M534.2 65.5C530.5 64.8 522.2 63.8 517.7 68.8C513.2 73.8 512.1 79.2 510.1 86.8C508.1 94.4 504.6 108.2 504.6 108.2C504.6 108.2 510.4 116.6 528.7 114.2L534.2 65.5Z" fill="url(#paint9_linear_97_403)"/>
<path d="M580 330H567.2L563.5 302.1L579.7 301.5L580 330Z" fill="#FFA8A7"/>
<path d="M537.4 316C535.2 319.8 528.2 319.5 522.4 318.1L521.7 290.7L538.9 290L537.4 316Z" fill="#FFA8A7"/>
<path d="M579.1 154C579.6 165.8 578 235.9 578 235.9C578.4 239.3 581.9 245.2 582.7 257.5C583.8 275.3 580.1 313.3 580.1 313.3C580.1 313.3 572.8 317.1 564.8 314.2C564.8 314.2 556.7 259.2 553.8 241.6C551.3 226.3 548 185.3 548 185.3L541.7 237.9C541.7 237.9 543.5 246.2 543.1 256.8C542.8 265 538.2 304.7 538.2 304.7C538.2 304.7 530.4 307.6 521.8 305.1C521.8 305.1 518 243.5 517.5 236C517 227.5 517.3 152.3 517.3 152.3L579.1 154Z" fill="url(#paint10_linear_97_403)"/>
<path opacity="0.2" d="M548.1 185.3C548.1 185.3 536.9 182.1 529.3 175.3C529.3 175.3 532.9 181.4 543 186.8L542.4 232.7L548.1 185.3Z" fill="black"/>
<path d="M552.5 353.2C552.1 353.6 552.3 356.4 552.8 357.1C553.3 357.9 556.4 360.3 561.7 360.4C566.8 360.6 571.3 359.7 574.1 357.7C577 355.7 578.3 353.6 578.5 350.7C578.7 347.8 578.2 345 579.5 342.8C580.7 340.7 582.6 338.3 583 337.2C583.9 334.7 582.8 331.3 582.8 331.3L552.5 353.2Z" fill="#263238"/>
<path d="M565.4 327.5C565.4 328.6 565.3 329.6 564.9 330.7C564.3 333 563.2 335.1 562.1 337.2C561.5 338.3 560.9 339.3 560.1 340.3C558.6 342.2 556.8 343.7 555.3 345.6C553.7 347.4 552.5 349.6 552.4 351.9C552.3 355.9 556.7 357.1 560 357.5C563.6 358 567.3 357.7 570.7 356.5C574.5 355.3 577.2 352.2 577.6 348.3C577.7 347.2 577.6 346.1 577.7 345C577.9 342.5 579.1 340.1 580.5 337.9C581.3 336.6 582.2 335.4 582.7 334C583.6 331.5 582.7 328.8 581.9 326.4C581.2 324.3 580.5 321.9 579.8 322.2C579.8 323.3 579.8 323.4 579.1 324.2C578.1 325.2 578.2 326.6 577.1 327.5C577.5 326.2 577.6 325.6 577.7 324.7C577.8 324.4 577.6 323.8 577.4 323.6C577.1 323.3 576.6 323.1 576.2 323C574.6 322.5 573 322.2 571.3 322.1C569.8 322 568.1 321.9 566.6 322.3C566.1 322.4 565.7 322.7 565.4 323C565.1 323.4 565.1 323.7 565 324.4C565.2 324.8 565.3 326.5 565.4 327.5Z" fill="#455A64"/>
<path d="M561.5 338C562.9 336.8 566.2 336.7 568.1 336.8C570.4 337 572.2 337.7 573.3 338.4C573.8 338.7 574.4 338.6 574.8 338.2C575.3 337.7 575.2 336.9 574.6 336.5C573.5 335.7 571.4 334.7 568.7 334.6C564.2 334.5 563 335.3 563 335.3C563 335.3 561.1 336.7 561.5 338Z" fill="white"/>
<path d="M558.3 342.2C560.1 341 563.8 341 565.6 341.2C567.9 341.4 569.6 342.2 570.7 342.9C571.2 343.2 571.8 343.1 572.2 342.7C572.7 342.2 572.6 341.4 572 341C570.9 340.2 568.7 339 566 338.9C561.5 338.8 560.4 339.7 560.4 339.7C560.4 339.7 558.6 340.6 558.3 342.2Z" fill="white"/>
<path d="M570.4 330.4C567.3 330.2 566 330.6 564.8 331.1C564 331.6 563.6 332.8 564.1 333.1C565.1 332.5 566.8 332.2 569 332.2C570.5 332.2 572.3 332.7 573.9 333.3C574.3 333.5 574.7 333.7 575.2 333.9C575.7 334.2 576.4 333.9 576.6 333.4C576.8 332.9 576.6 332.4 576.2 332.1C575 331.5 572.9 330.5 570.4 330.4Z" fill="white"/>
<path d="M493.1 333.1C492.6 334 492.7 335.6 493.1 336.7C493.5 337.8 498.8 341.1 506.2 340.9C513.6 340.8 518.7 338 521.6 336.3C524.5 334.6 527.4 334.4 531.1 334.3C534.7 334.3 539.6 332.7 540.5 331C541.4 329.3 540.6 326.4 540.6 326.4L493.1 333.1Z" fill="#263238"/>
<path d="M523.8 311.6C523.6 311.5 523.4 311.5 523.2 311.5C522.9 311.4 522.6 311.3 522.2 311.4C521.8 311.5 521.5 311.7 521.3 312C520.5 312.8 519.9 313.9 519.3 314.9C517.6 317.3 514.3 319.3 510.7 321C508.2 322.2 505.8 323.1 503.3 324.1C500.7 325.1 497.3 325.7 495.3 326.9C492.3 328.7 491.7 333.6 494.9 335.6C497.7 337.4 505 339.5 512.9 337.7C517.2 336.7 522.1 332.4 527.8 332.2C531.4 332.1 538.1 331.4 540.5 328.8C541.4 327.6 540.5 323.8 539.7 320.5C538.9 316.9 539.2 311.5 537.6 311.5L537.5 313.3C537.3 313.8 536.1 314.4 535.7 314.8C535.2 315.3 534.7 315.8 534.3 316.3C533.7 317 533 317.6 532.2 318C530.8 318.6 529.1 318.3 527.6 317.9C527.5 317.9 528.4 315.1 528.5 314.8C528.6 314.6 528.6 314.3 528.6 314.1C528.5 313.9 528.4 313.7 528.2 313.6C526.7 312.5 525.3 312 523.8 311.6Z" fill="#455A64"/>
<path d="M514.1 319.1C514.1 319.1 514.7 317.8 516.8 317.5C518.4 317.3 521.2 318.6 522.9 320.1C523.6 320.7 523.4 321.9 522.6 322.3C522.1 322.5 521.5 322.4 521.1 322.1C520 321 517.5 319 514.1 319.1Z" fill="white"/>
<path d="M509 321.7C509 321.7 510.1 320.1 512.2 320.2C512.2 320.2 516.4 320.5 518.9 323.1C519.5 323.8 519.4 324.8 518.6 325.2C518.1 325.4 517.5 325.3 517.2 325C516 323.9 513.7 321.5 509 321.7Z" fill="white"/>
<path d="M503.3 323.9C503.3 323.9 504.5 322.5 506.6 322.6C506.6 322.6 510.5 322.9 513 325.5C513.6 326.2 513.5 327.2 512.7 327.6C512.2 327.8 511.6 327.7 511.3 327.4C510.2 326.3 508.1 323.8 503.3 323.9Z" fill="white"/>
<path d="M555.6 65.8C560.3 66.3 565.9 66.6 570.4 67.2C576.2 68 580.7 74 582.2 83.3C583.8 93.5 577.2 122.9 577.2 122.9L579.3 157.5C570.8 163.8 534.5 167.1 516.5 154C516.5 154 516.9 95.1 518.3 86C520.2 73.6 523.3 65.8 537.3 64.9L555.6 65.8Z" fill="url(#paint11_linear_97_403)"/>
<path d="M587.8 140.8C586.3 143.4 584.7 145.9 583.2 148.4C582.6 149.3 582 150.3 581.4 151.2C581.2 151.5 580.6 152.2 580.2 152.4C579.4 152.9 577.9 152.6 576.9 152.6C572.4 152.7 567.9 153.1 563.4 153.6C562.7 153.7 561.8 153.8 561.4 154.5C560.9 155.2 561.3 156.2 562 156.7C562.7 157.2 563.6 157.3 564.4 157.4C565.7 157.6 567 157.7 568.3 157.9C568.8 158 569.4 158 569.9 158.4C571.3 159.6 568.6 160.9 567.8 161.5C566.2 162.6 564.4 163.6 562.6 164.4C554.5 167.8 553.5 170.3 555 173.1C556.3 175.6 561.9 184.5 576.2 176.8C581.9 173.7 590.7 163.9 594.7 159.2C600.4 152.4 610.2 137.2 610.2 137.2C615.7 129.6 616.4 126.5 616.6 123.4C616.7 120.2 599.6 96 593.8 87.5C588 79 585.2 68.6 570.4 67.2C570.4 67.2 564.8 85.1 574.1 96.7L595.7 126.8C595.6 126.7 589.9 137.2 587.8 140.8Z" fill="#FFA8A7"/>
<path d="M603.5 99C600.7 95 597.8 90.9 595.1 86.8C583.4 69.7 584.3 66.5 567.4 66.3C565.9 68.6 565 78.5 567.3 88.4C569.2 96.8 576.3 102.6 576.3 102.6L584.8 114.1C584.8 114.1 590 113.9 596.2 109.4C602.3 104.9 603.5 99 603.5 99Z" fill="url(#paint12_linear_97_403)"/>
<path d="M566.7 20.7C563.5 16.2 558.9 17 558.9 17L558 38.5L556.6 46.4L556.9 55.2C556.9 55.2 559.3 55.1 560.7 52.3C562 49.8 565.7 37.5 565.7 37.5C569 27.4 568.3 22.8 566.7 20.7Z" fill="#37474F"/>
<path d="M557 38.6C557.4 37.3 557.8 36.5 559.1 35.2C560.3 33.9 565.2 32.5 567.5 36.6C569.8 40.8 566 46.3 563.1 47.9C559.4 50.1 557.2 47.1 557.2 47.1L557.3 66.9C555.6 70.9 547.8 74.5 543.1 73.9C539.4 73.4 536 70.5 539.3 66.3L539 60.7C539 60.7 534.1 61.7 531.6 61.4C527.5 61 524.8 57.9 523.4 53.6C521.1 46.7 520 41 521 27.1C522.1 11.8 539.7 10.8 549.5 16.3C559.3 21.8 557 38.6 557 38.6Z" fill="#FFA8A7"/>
<path d="M515.3 11.2C514.9 7.89999 516 4.29999 519.5 3.09999C522.1 2.19999 524.8 2.29999 527.2 4.39999C528.1 2.09999 530.3 0.299994 532.8 -6.19143e-06C535.3 -0.300006 537.9 0.999994 539.2 3.09999C540.3 1.59999 541.5 0.699994 543.2 0.299994C545.2 -0.200006 547.7 0.299994 549.1 1.39999C550.5 2.49999 552.2 4.39999 551.8 6.89999C554.6 5.79999 557.5 6.69999 559.6 9.19999C560.9 10.7 561.5 12.6 561.6 14.6C561.6 15.5 561.6 16.7 561.2 17.6C560.8 18.5 560 19.1 559.7 20.1C559.5 21.1 559 22 559.2 22.9C559.4 24.6 559.8 26.3 560 27.9C560.2 29.5 560.4 31.2 560.4 32.8C560.4 33.6 559.8 34.1 559.2 34.7C558.1 35.6 557.9 36.1 557.1 37.8C556.7 38.5 556.4 40.3 555.7 40.8C553.6 42.3 553.3 37.5 553.2 36.5C553.1 35.6 553.1 33.2 553.2 30.1C552.5 30.1 549.7 30 547.5 27.5C546.8 26.7 546.2 25.4 546.1 24.4C546 23.7 545.9 23.1 545.9 22.4C544.5 24.7 541.3 25.6 539 25.4C535.1 25.1 533.8 23.4 533.2 22.2C532.9 23.3 532.4 24.7 531.7 25.5C530.7 26.5 529.4 27.1 528.2 27.5C526 28.2 523.5 27.3 521.9 25.7C520.3 28 516.4 26.9 515.5 26.3C513.5 24.8 512.9 23.1 512.6 20.6C512.4 18.1 513.4 15.3 516.1 14.3C515.8 13.5 515.5 12.4 515.3 11.2Z" fill="#37474F"/>
<path d="M538.9 60.6C538.9 60.6 547.8 58.3 550.9 56.5C553 55.3 554.6 53.2 555.1 52C555.1 52 554.6 54.7 552.9 57.2C550.7 60.3 539.1 63 539.1 63L538.9 60.6Z" fill="#F28F8F"/>
<path d="M539.4 37.9C539.5 39 540.4 39.9 541.4 39.8C542.5 39.7 543.3 38.8 543.2 37.7C543.1 36.6 542.2 35.7 541.2 35.8C540.2 35.8 539.4 36.8 539.4 37.9Z" fill="#263238"/>
<path d="M536.4 52.4C536.5 53.8 537.6 54.9 539 54.9C540.4 54.8 541.4 53.6 541.4 52.2C541.3 50.8 540.2 49.7 538.8 49.7C537.4 49.7 536.4 50.9 536.4 52.4Z" fill="#F28F8F"/>
<path d="M541 31.2L545.1 33.2C545.6 32 545.1 30.6 544 30.1C542.9 29.5 541.6 30.1 541 31.2Z" fill="#263238"/>
<path d="M523.1 33L526.6 30C525.8 29 524.4 28.8 523.4 29.7C522.5 30.5 522.3 31.9 523.1 33Z" fill="#263238"/>
<path d="M524.2 37.5C524.3 38.6 525.1 39.4 526.2 39.3C527.2 39.2 528 38.3 528 37.3C527.9 36.2 527.1 35.4 526 35.5C524.9 35.5 524.1 36.4 524.2 37.5Z" fill="#263238"/>
<path d="M533.5 35.3L533.4 47.1L527.1 45.3L533.5 35.3Z" fill="#F28F8F"/>
<path d="M517.7 51.8C517.8 51.8 517.9 51.7 518 51.6C518.1 51.4 518.1 51.1 517.9 51L512.5 47.4C512.3 47.3 512 47.3 511.9 47.5C511.8 47.7 511.8 48 512 48.1L517.4 51.7C517.5 51.8 517.6 51.9 517.7 51.8Z" fill="#E0E0E0"/>
<path d="M517.2 54.2C517.4 54.2 517.5 54 517.6 53.9C517.7 53.7 517.5 53.4 517.3 53.3L510.9 51.8C510.7 51.7 510.4 51.9 510.3 52.1C510.2 52.3 510.4 52.6 510.6 52.7L517 54.2C517 54.2 517.1 54.2 517.2 54.2Z" fill="#E0E0E0"/>
<path d="M511.3 58.4L517.5 56.1C517.7 56 517.9 55.7 517.8 55.5C517.7 55.3 517.4 55.1 517.2 55.2L511.1 57.4C510.9 57.5 510.7 57.8 510.8 58C510.8 58.3 511 58.4 511.3 58.4Z" fill="#E0E0E0"/>
<path d="M459.4 106.4C459.6 106.7 459.8 107 460.2 107.1C461 107.4 461.8 107 462.1 106.2L466.7 94.9C467 94.1 466.6 93.3 465.8 93C465 92.7 464.2 93.1 463.9 93.9L459.3 105.2C459.2 105.6 459.2 106 459.4 106.4Z" fill="#E0E0E0"/>
<path d="M451.9 106.4C452.1 106.9 452.6 107.2 453.2 107.2C454 107.2 454.6 106.5 454.6 105.7L454.5 91.7C454.5 90.9 453.8 90.3 453 90.3C452.2 90.3 451.6 91 451.6 91.8L451.7 105.8C451.7 106 451.8 106.2 451.9 106.4Z" fill="#E0E0E0"/>
<path d="M439.1 98.5C439.1 98.6 439.2 98.6 439.2 98.7L446.1 108.7C446.5 109.4 447.4 109.5 448.1 109.1C448.8 108.7 448.9 107.7 448.5 107.1L441.6 97.1C441.2 96.4 440.3 96.3 439.6 96.7C439 97.1 438.8 97.9 439.1 98.5Z" fill="#E0E0E0"/>
</g>
<path d="M114.7 420C151.537 420 181.4 402.763 181.4 381.5C181.4 360.237 151.537 343 114.7 343C77.8625 343 47.9999 360.237 47.9999 381.5C47.9999 402.763 77.8625 420 114.7 420Z" fill="#F5F5F5"/>
<path d="M81.4333 337.919L82.3501 368.888L77.6308 384.537C77.6308 384.537 76.715 385.635 84.2808 387.426C91.8467 389.216 96.1936 386.572 96.1936 386.572L94.8413 369.386L98.3118 342.034L81.4333 337.919Z" fill="#FFA8A7"/>
<path d="M126.209 342.745L130.778 371.144L131.753 384.52L160.429 387.51L145.006 372.304L142.005 341.557L126.209 342.745Z" fill="#FFA8A7"/>
<path d="M80.6013 375.133C80.6013 375.133 81.5996 379.777 86.4822 380.696C93.943 382.087 95.3548 376.597 95.3548 376.597C95.3548 376.597 97.1407 386.78 97.0874 389.122C97.034 391.464 91.319 393.996 85.9838 393.561C79.9645 393.07 77.1978 389.846 75.9882 387.792C74.7892 385.609 80.6013 375.133 80.6013 375.133Z" fill="#455A64"/>
<path d="M131.019 374.944C131.019 374.944 129.997 380.726 130.343 383.231C130.69 385.736 131.11 387.335 131.784 387.52C132.32 387.694 142.402 389.038 144.864 389.239C147.316 389.569 158.502 390.873 161.964 390.634C165.426 390.395 165.984 390.31 166.648 388.93C167.311 387.55 152.149 379.274 152.149 379.274C152.149 379.274 148.339 380.397 142.583 380.058C136.816 379.849 133.492 375.015 131.019 374.944Z" fill="#455A64"/>
<path d="M116.463 139.355L115.587 150.103L101.696 148.188L100.754 132.73L116.463 139.355Z" fill="#FFA8A7"/>
<path d="M190.279 158.305C188.543 157.642 186.207 157.582 184.544 157.707L184.597 157.06C187.091 156.872 191.942 156.486 189.533 155.638C186.723 154.626 182.114 155.423 182.114 155.423L177.958 154.042C179.326 152.459 180.558 149.17 179.569 149.48C178.58 149.791 174.632 154.292 173.443 155.368L153.137 173.004L128.183 148.026C125.078 150.641 123.116 164.559 126.808 171.639C130.658 178.47 152.449 188.199 152.449 188.199C161.362 188.666 174.049 169.887 177.828 164.068L182.353 164.307C182.353 164.307 183.584 164.407 184.553 164.356C187.173 164.309 190.625 164.2 188.499 163.244C187.3 162.755 185.942 162.514 184.574 162.403L184.617 161.885C187.111 161.697 192.215 161.592 189.816 160.614C188.353 159.973 186.29 159.935 184.638 159.931L184.67 159.543C186.743 159.451 192.941 159.435 190.279 158.305Z" fill="#FFA8A7"/>
<path d="M123.112 108.897C123.112 108.897 126.706 125.615 126.536 132.771C126.355 140.056 121.092 143.798 114.799 143.285C108.506 142.771 103.193 138.688 103.193 138.688L96.3884 124.185C93.8013 118.76 96.1078 112.43 101.57 109.617C103.865 108.501 106.296 107.395 108.969 106.701C117.704 104.285 123.112 108.897 123.112 108.897Z" fill="#FFA8A7"/>
<path d="M99.0512 124.9C99.0512 124.9 94.7898 123.118 93.0737 125.585C91.3576 128.052 94.5765 132.486 97.4699 134.156C100.363 135.826 104.994 134.77 104.994 134.77L99.0512 124.9Z" fill="#FFA8A7"/>
<path d="M138.864 221.374C138.864 221.374 131.707 224.701 117.005 224.284C110.818 224.171 104.272 223.376 98.5477 222.648C90.6449 221.613 84.8152 220.485 84.8152 220.485L89.1693 194.118L81.5006 149.693C86.7318 146.34 101.213 144.392 101.213 144.392C101.213 144.392 107.262 149.579 113.597 149.574C115.807 149.493 115.756 145.057 115.756 145.057C115.756 145.057 123.87 145.198 127.31 146.912C127.847 147.086 128.236 147.379 128.615 147.801C136.947 157.084 131.399 196.389 131.399 196.389L138.864 221.374Z" fill="url(#paint13_linear_97_403)"/>
<path d="M121.113 108.083C121.113 108.083 120.123 111.782 115.691 115.462C111.123 119.13 107.271 119.076 107.271 119.076C107.271 119.076 105.997 121.189 104.271 122.091C102.545 122.993 102.545 122.993 102.545 122.993C102.545 122.993 103.628 126.601 102.733 129.135C102.733 129.135 99.6929 124.194 96.5148 124.326C93.3366 124.458 91.694 127.713 93.661 130.611C95.4912 133.497 99.6476 134.879 100.605 134.957L101.108 142.298C101.108 142.298 98.8665 142.767 95.6677 141.463L95.5309 141.452C94.0789 140.682 92.1315 142.609 88.8377 142.471C85.5439 142.332 85.1551 140.345 82.3557 140.899C79.5563 141.453 74.2838 141.935 72.9279 136.61C71.572 131.286 76.0764 130.089 74.8251 126.858C73.7106 123.639 75.6791 121.453 78.6681 120.263C81.6572 119.073 79.4181 111.069 83.9019 108.437C88.3962 105.675 89.5118 105.505 90.6278 103.641C91.7439 101.776 95.859 100.287 99.4053 100.707C103.909 101.204 103.153 96.9713 109.403 98.0026C116.738 99.2526 118 102.354 118 102.354C118 102.354 121.43 102.503 124.871 105.912C130.615 111.465 128.834 118.098 125.581 122.525C125.571 122.655 122.87 110.181 121.113 108.083Z" fill="#37474F"/>
<path d="M82.1217 148.832L55.4694 171.686L36.5224 152.412C35.523 151.157 31.7781 146.42 30.8522 145.953C29.7895 145.475 30.8829 148.954 32.1241 150.619L27.9039 151.709C27.9039 151.709 23.316 150.553 20.4954 151.365C18.0959 152.082 22.8628 152.732 25.4409 153.203L25.3881 153.85C23.7571 153.587 21.4314 153.397 19.5896 154.029C16.8953 154.982 23.1882 155.496 25.2297 155.792L25.198 156.181C23.6932 156.058 21.5043 155.88 20.0835 156.416C17.6734 157.262 22.7245 157.804 25.1764 158.134L25.1341 158.652C23.7555 158.67 22.2401 158.677 21.1035 159.106C18.9775 159.845 22.387 160.253 24.9862 160.465C25.807 160.532 27.1751 160.644 27.1751 160.644L31.7107 160.753C35.0552 167.022 46.2568 186.707 55.1912 186.914C55.1912 186.914 82.3872 175.967 86.5144 169.264C90.7679 162.703 85.0569 151.678 82.1217 148.832Z" fill="#FFA8A7"/>
<path d="M148.813 344.198L141.889 344.676L124.851 345.893L114.27 256.128L112.051 252.949L104.604 344.242L77.2437 342.01C77.2437 342.01 75.2322 277.19 76.8166 257.766C78.401 238.342 85.627 215.598 85.627 215.598C111.933 225.695 137.907 217.907 137.907 217.907C138.128 218.577 138.349 219.247 138.569 219.917C146.054 248.032 148.813 344.198 148.813 344.198Z" fill="url(#paint14_linear_97_403)"/>
<path d="M55.4694 171.686C55.4694 171.686 59.2355 176.164 60.7921 179.028" stroke="#F28F8F" stroke-miterlimit="10" stroke-linecap="round" stroke-linejoin="round"/>
<path d="M153.285 172.886C153.285 172.886 151.726 176.8 152.672 180.396" stroke="#F28F8F" stroke-miterlimit="10" stroke-linecap="round" stroke-linejoin="round"/>
<path d="M115.893 143.374C115.893 143.374 106.075 143.877 102.141 136.386" stroke="#F28F8F" stroke-miterlimit="10" stroke-linecap="round" stroke-linejoin="round"/>
<path d="M90.4533 193.571L95.3777 195.667" stroke="#F96786" stroke-miterlimit="10" stroke-linecap="round" stroke-linejoin="round"/>
<path d="M81.0862 232.435C81.0862 232.435 90.263 231.358 92.4338 221.628" stroke="#7954B3" stroke-miterlimit="10"/>
<path d="M84.5104 219.157C84.5104 219.157 112.521 230.306 138.864 221.374" stroke="#7954B3" stroke-miterlimit="10"/>
<path d="M112.177 253.09C112.177 253.09 114.715 247.301 120.272 245.016" stroke="#7954B3" stroke-miterlimit="10"/>
<path d="M133.222 223C133.222 223 135.64 232.192 141.227 234.603" stroke="#7954B3" stroke-miterlimit="10"/>
<path d="M77.0356 334.432C77.0356 334.432 86.9059 336.671 105.354 336.742" stroke="#7954B3" stroke-miterlimit="10"/>
<path d="M148.637 336.232C148.637 336.232 135.671 338.172 124.001 337.742" stroke="#7954B3" stroke-miterlimit="10"/>
<path d="M97.4451 144.998C97.4451 144.998 103.021 150.927 111.776 151.641C120.531 152.356 118.239 144.999 118.239 144.999" stroke="#F96786" stroke-miterlimit="10" stroke-linecap="round" stroke-linejoin="round"/>
<path d="M102.023 178.351C102.023 178.351 115.083 176.939 126.333 177.466" stroke="#F96786" stroke-miterlimit="10" stroke-linecap="round" stroke-linejoin="round"/>
<path d="M567.194 120L576.214 123.128" stroke="#F96786" stroke-miterlimit="10" stroke-linecap="round" stroke-linejoin="round"/>
<path d="M560.01 71.7688C560.01 71.7688 552.276 76.6128 541.671 75.7478C531.067 74.8828 535.127 68.0446 535.127 68.0446" stroke="#F96786" stroke-miterlimit="10" stroke-linecap="round" stroke-linejoin="round"/>
<path d="M112.669 126.711C112.607 127.427 112.046 128.012 111.424 127.947C110.739 127.882 110.241 127.297 110.303 126.581C110.366 125.865 110.926 125.279 111.548 125.344C112.171 125.344 112.669 125.995 112.669 126.711Z" fill="#263238"/>
<path d="M114.536 136.148C114.474 137.059 113.789 137.775 112.918 137.775C112.046 137.71 111.424 136.929 111.424 136.018C111.486 135.106 112.171 134.39 113.042 134.39C113.914 134.39 114.536 135.171 114.536 136.148Z" fill="#F28F8F"/>
<path d="M111.673 122.35L109.121 123.652C108.81 122.871 109.121 121.96 109.806 121.634C110.49 121.244 111.299 121.634 111.673 122.35Z" fill="#263238"/>
<path d="M122.814 123.522L120.636 121.569C121.134 120.918 122.005 120.788 122.628 121.374C123.188 121.895 123.312 122.806 122.814 123.522Z" fill="#263238"/>
<path d="M122.13 126.45C122.068 127.166 121.57 127.687 120.885 127.622C120.262 127.557 119.765 126.971 119.765 126.32C119.827 125.604 120.325 125.084 121.009 125.149C121.694 125.149 122.192 125.735 122.13 126.45Z" fill="#263238"/>
<path d="M116.341 125.019L116.403 132.698L120.325 131.527L116.341 125.019Z" fill="#F28F8F"/>
<defs>
<linearGradient id="paint0_linear_97_403" x1="254.9" y1="301.7" x2="254.9" y2="392.3" gradientUnits="userSpaceOnUse">
<stop stop-color="#E38601"/>
<stop offset="1" stop-color="#FFB507"/>
</linearGradient>
<linearGradient id="paint1_linear_97_403" x1="213.4" y1="244" x2="213.4" y2="344.3" gradientUnits="userSpaceOnUse">
<stop stop-color="#E38601"/>
<stop offset="1" stop-color="#FFB507"/>
</linearGradient>
<linearGradient id="paint2_linear_97_403" x1="218.05" y1="286.5" x2="218.05" y2="392.3" gradientUnits="userSpaceOnUse">
<stop stop-color="#E38601"/>
<stop offset="1" stop-color="#FFB507"/>
</linearGradient>
<linearGradient id="paint3_linear_97_403" x1="291.8" y1="244" x2="291.8" y2="349.8" gradientUnits="userSpaceOnUse">
<stop stop-color="#E38601"/>
<stop offset="1" stop-color="#FFB507"/>
</linearGradient>
<linearGradient id="paint4_linear_97_403" x1="296.45" y1="292" x2="296.45" y2="392.3" gradientUnits="userSpaceOnUse">
<stop stop-color="#E38601"/>
<stop offset="1" stop-color="#FFB507"/>
</linearGradient>
<linearGradient id="paint5_linear_97_403" x1="291.8" y1="212" x2="291.8" y2="292" gradientUnits="userSpaceOnUse">
<stop stop-color="#E38601"/>
<stop offset="1" stop-color="#FFB507"/>
</linearGradient>
<linearGradient id="paint6_linear_97_403" x1="299.6" y1="264.5" x2="299.6" y2="334.6" gradientUnits="userSpaceOnUse">
<stop stop-color="#E38601"/>
<stop offset="1" stop-color="#FFB507"/>
</linearGradient>
<linearGradient id="paint7_linear_97_403" x1="209" y1="215" x2="209" y2="286.5" gradientUnits="userSpaceOnUse">
<stop stop-color="#E38601"/>
<stop offset="1" stop-color="#FFB507"/>
</linearGradient>
<linearGradient id="paint8_linear_97_403" x1="209.4" y1="262.6" x2="209.4" y2="334.6" gradientUnits="userSpaceOnUse">
<stop stop-color="#E38601"/>
<stop offset="1" stop-color="#FFB507"/>
</linearGradient>
<linearGradient id="paint9_linear_97_403" x1="519.4" y1="64.9176" x2="519.4" y2="114.631" gradientUnits="userSpaceOnUse">
<stop stop-color="#C34B6A"/>
<stop offset="1" stop-color="#A03061"/>
</linearGradient>
<linearGradient id="paint10_linear_97_403" x1="550.057" y1="152.3" x2="550.057" y2="315.291" gradientUnits="userSpaceOnUse">
<stop stop-color="#2BA0E7"/>
<stop offset="1" stop-color="#93E9F3"/>
</linearGradient>
<linearGradient id="paint11_linear_97_403" x1="549.475" y1="64.9" x2="549.475" y2="163.025" gradientUnits="userSpaceOnUse">
<stop stop-color="#C74E6B"/>
<stop offset="1" stop-color="#9C2D5F"/>
</linearGradient>
<linearGradient id="paint12_linear_97_403" x1="584.7" y1="66.3" x2="584.7" y2="114.1" gradientUnits="userSpaceOnUse">
<stop stop-color="#C54D6B"/>
<stop offset="1" stop-color="#9E2F60"/>
</linearGradient>
<linearGradient id="paint13_linear_97_403" x1="100.574" y1="147.741" x2="115.351" y2="237.09" gradientUnits="userSpaceOnUse">
<stop stop-color="#CD536C"/>
<stop offset="1" stop-color="#8B1F5A"/>
</linearGradient>
<linearGradient id="paint14_linear_97_403" x1="94.9781" y1="214.085" x2="117.366" y2="349.454" gradientUnits="userSpaceOnUse">
<stop stop-color="#464F96"/>
<stop offset="1" stop-color="#7954B3"/>
</linearGradient>
<clipPath id="clip0_97_403">
<rect width="470.6" height="442.9" fill="white" transform="translate(146)"/>
</clipPath>
</defs>
</svg>
