<svg width="98" height="26" viewBox="0 0 98 26" fill="none" xmlns="http://www.w3.org/2000/svg">
<path d="M10.2188 8.09375V11.5156H0.1875V8.09375H10.2188ZM2.48438 3.90625H7.375V19.7031C7.375 20.1719 7.43229 20.5312 7.54688 20.7812C7.66146 21.0312 7.84896 21.2083 8.10938 21.3125C8.36979 21.4062 8.70312 21.4531 9.10938 21.4531C9.40104 21.4531 9.65104 21.4427 9.85938 21.4219C10.0677 21.401 10.2604 21.375 10.4375 21.3438V24.875C10.0208 25.0104 9.57812 25.1146 9.10938 25.1875C8.64062 25.2708 8.13021 25.3125 7.57812 25.3125C6.52604 25.3125 5.61458 25.1406 4.84375 24.7969C4.08333 24.4531 3.5 23.9115 3.09375 23.1719C2.6875 22.4219 2.48438 21.4479 2.48438 20.25V3.90625ZM20.5312 25.3125C19.1875 25.3125 17.9844 25.099 16.9219 24.6719C15.8594 24.2448 14.9583 23.6562 14.2188 22.9062C13.4896 22.1458 12.9323 21.2708 12.5469 20.2812C12.1615 19.2917 11.9688 18.2344 11.9688 17.1094V16.5156C11.9688 15.2552 12.1458 14.0938 12.5 13.0312C12.8542 11.9688 13.3698 11.0469 14.0469 10.2656C14.7344 9.47396 15.5781 8.86458 16.5781 8.4375C17.5781 8 18.7188 7.78125 20 7.78125C21.1979 7.78125 22.2656 7.97917 23.2031 8.375C24.1406 8.76042 24.9323 9.31771 25.5781 10.0469C26.224 10.7656 26.7135 11.6354 27.0469 12.6562C27.3906 13.6667 27.5625 14.8021 27.5625 16.0625V18.0625H13.9375V14.9219H22.7812V14.5469C22.7812 13.9531 22.6719 13.4323 22.4531 12.9844C22.2448 12.5365 21.9323 12.1927 21.5156 11.9531C21.1094 11.7031 20.5938 11.5781 19.9688 11.5781C19.375 11.5781 18.8802 11.7031 18.4844 11.9531C18.0885 12.2031 17.7708 12.5573 17.5312 13.0156C17.3021 13.4635 17.1354 13.9896 17.0312 14.5938C16.9271 15.1875 16.875 15.8281 16.875 16.5156V17.1094C16.875 17.7656 16.9635 18.3646 17.1406 18.9062C17.3177 19.4479 17.5781 19.9115 17.9219 20.2969C18.2656 20.6823 18.6823 20.9844 19.1719 21.2031C19.6615 21.4219 20.2188 21.5312 20.8438 21.5312C21.6146 21.5312 22.349 21.3854 23.0469 21.0938C23.7448 20.7917 24.349 20.3229 24.8594 19.6875L27.1406 22.2969C26.7969 22.7969 26.3125 23.2812 25.6875 23.75C25.0729 24.2083 24.3333 24.5833 23.4688 24.875C22.6042 25.1667 21.625 25.3125 20.5312 25.3125ZM38.9375 20.2969C38.9375 19.9844 38.8385 19.7083 38.6406 19.4688C38.4531 19.2292 38.1094 19.0104 37.6094 18.8125C37.1198 18.6146 36.4271 18.4167 35.5312 18.2188C34.6875 18.0417 33.901 17.8125 33.1719 17.5312C32.4427 17.2396 31.8073 16.8906 31.2656 16.4844C30.724 16.0677 30.3021 15.5781 30 15.0156C29.6979 14.4427 29.5469 13.7917 29.5469 13.0625C29.5469 12.3542 29.6979 11.6823 30 11.0469C30.3125 10.4115 30.7604 9.84896 31.3438 9.35938C31.9375 8.86979 32.6562 8.48438 33.5 8.20312C34.3542 7.92188 35.3229 7.78125 36.4062 7.78125C37.8958 7.78125 39.1823 8.01562 40.2656 8.48438C41.349 8.94271 42.1823 9.58854 42.7656 10.4219C43.349 11.2448 43.6406 12.1875 43.6406 13.25H38.7656C38.7656 12.8125 38.6823 12.4323 38.5156 12.1094C38.349 11.7865 38.0938 11.5365 37.75 11.3594C37.4062 11.1719 36.9531 11.0781 36.3906 11.0781C35.9531 11.0781 35.5677 11.1562 35.2344 11.3125C34.9115 11.4583 34.6562 11.6615 34.4688 11.9219C34.2917 12.1823 34.2031 12.4844 34.2031 12.8281C34.2031 13.0677 34.2552 13.2865 34.3594 13.4844C34.474 13.6719 34.6458 13.849 34.875 14.0156C35.1146 14.1719 35.4219 14.3125 35.7969 14.4375C36.1823 14.5625 36.651 14.6823 37.2031 14.7969C38.3802 15.0156 39.4531 15.3229 40.4219 15.7188C41.401 16.1146 42.1823 16.6615 42.7656 17.3594C43.3594 18.0573 43.6562 18.9792 43.6562 20.125C43.6562 20.875 43.4844 21.5625 43.1406 22.1875C42.8073 22.8125 42.3229 23.3594 41.6875 23.8281C41.0521 24.2969 40.2917 24.6615 39.4062 24.9219C38.5208 25.1823 37.5208 25.3125 36.4062 25.3125C34.8125 25.3125 33.4635 25.026 32.3594 24.4531C31.2552 23.8802 30.4219 23.1615 29.8594 22.2969C29.3073 21.4219 29.0312 20.526 29.0312 19.6094H33.6094C33.6302 20.1719 33.7708 20.6302 34.0312 20.9844C34.3021 21.3385 34.651 21.599 35.0781 21.7656C35.5052 21.9219 35.9844 22 36.5156 22C37.0469 22 37.4896 21.9271 37.8438 21.7812C38.1979 21.6354 38.4688 21.4375 38.6562 21.1875C38.8438 20.9271 38.9375 20.6302 38.9375 20.2969ZM54.9688 8.09375V11.5156H44.9375V8.09375H54.9688ZM47.2344 3.90625H52.125V19.7031C52.125 20.1719 52.1823 20.5312 52.2969 20.7812C52.4115 21.0312 52.599 21.2083 52.8594 21.3125C53.1198 21.4062 53.4531 21.4531 53.8594 21.4531C54.151 21.4531 54.401 21.4427 54.6094 21.4219C54.8177 21.401 55.0104 21.375 55.1875 21.3438V24.875C54.7708 25.0104 54.3281 25.1146 53.8594 25.1875C53.3906 25.2708 52.8802 25.3125 52.3281 25.3125C51.276 25.3125 50.3646 25.1406 49.5938 24.7969C48.8333 24.4531 48.25 23.9115 47.8438 23.1719C47.4375 22.4219 47.2344 21.4479 47.2344 20.25V3.90625ZM62.4531 8.09375V25H57.5625V8.09375H62.4531ZM57.2656 3.71875C57.2656 3.01042 57.5156 2.43229 58.0156 1.98438C58.5156 1.52604 59.1719 1.29688 59.9844 1.29688C60.7969 1.29688 61.4531 1.52604 61.9531 1.98438C62.4635 2.43229 62.7188 3.01042 62.7188 3.71875C62.7188 4.41667 62.4635 4.99479 61.9531 5.45312C61.4531 5.90104 60.7969 6.125 59.9844 6.125C59.1719 6.125 58.5156 5.90104 58.0156 5.45312C57.5156 4.99479 57.2656 4.41667 57.2656 3.71875ZM70.875 0.984375V25H65.9844V0.984375H70.875ZM81.6094 8.09375L74.25 16.5938L70.3594 20.5L68.4062 17.2031L71.5625 13.125L75.7344 8.09375H81.6094ZM76.4531 25L71.6875 17.2344L75.1875 14.5L82.0469 25H76.4531ZM92.2344 20.9688V13.7188C92.2344 13.2083 92.1562 12.7708 92 12.4062C91.8438 12.0417 91.599 11.7552 91.2656 11.5469C90.9323 11.3385 90.5 11.2344 89.9688 11.2344C89.5208 11.2344 89.1302 11.3125 88.7969 11.4688C88.474 11.625 88.224 11.849 88.0469 12.1406C87.8802 12.4323 87.7969 12.7917 87.7969 13.2188H82.9219C82.9219 12.4583 83.0938 11.75 83.4375 11.0938C83.7812 10.4375 84.2708 9.85938 84.9062 9.35938C85.5521 8.85938 86.3229 8.47396 87.2188 8.20312C88.1146 7.92188 89.1198 7.78125 90.2344 7.78125C91.5573 7.78125 92.7344 8.00521 93.7656 8.45312C94.8073 8.89062 95.6302 9.55208 96.2344 10.4375C96.8385 11.3125 97.1406 12.4167 97.1406 13.75V20.8281C97.1406 21.849 97.1979 22.651 97.3125 23.2344C97.4375 23.8073 97.6146 24.3073 97.8438 24.7344V25H92.9219C92.6927 24.5104 92.5208 23.9062 92.4062 23.1875C92.2917 22.4583 92.2344 21.7188 92.2344 20.9688ZM92.8438 14.6875L92.875 17.375H90.4531C89.9115 17.375 89.4427 17.4427 89.0469 17.5781C88.6615 17.7135 88.349 17.901 88.1094 18.1406C87.8698 18.3698 87.6927 18.6406 87.5781 18.9531C87.474 19.2552 87.4219 19.5885 87.4219 19.9531C87.4219 20.2969 87.5052 20.6094 87.6719 20.8906C87.8385 21.1615 88.0677 21.375 88.3594 21.5312C88.651 21.6875 88.9896 21.7656 89.375 21.7656C90.0104 21.7656 90.5521 21.6406 91 21.3906C91.4583 21.1406 91.8125 20.8385 92.0625 20.4844C92.3125 20.1198 92.4375 19.7812 92.4375 19.4688L93.6094 21.5C93.4219 21.9167 93.1927 22.349 92.9219 22.7969C92.651 23.2344 92.3073 23.6458 91.8906 24.0312C91.474 24.4062 90.9688 24.7135 90.375 24.9531C89.7917 25.1927 89.0885 25.3125 88.2656 25.3125C87.2031 25.3125 86.2396 25.099 85.375 24.6719C84.5104 24.2344 83.8177 23.6354 83.2969 22.875C82.7865 22.1146 82.5312 21.2396 82.5312 20.25C82.5312 19.3646 82.6927 18.5781 83.0156 17.8906C83.3385 17.2031 83.8229 16.6198 84.4688 16.1406C85.125 15.6615 85.9479 15.3021 86.9375 15.0625C87.9271 14.8125 89.0833 14.6875 90.4062 14.6875H92.8438Z" fill="url(#paint0_linear_10_51)"/>
<defs>
<linearGradient id="paint0_linear_10_51" x1="49.5" y1="-5" x2="49.5" y2="33" gradientUnits="userSpaceOnUse">
<stop stop-color="#2A9FE6"/>
<stop offset="0.5625" stop-color="#0CC0EB"/>
<stop offset="1" stop-color="#0CC0EB" stop-opacity="0"/>
</linearGradient>
</defs>
</svg>
